G04 #@! TF.GenerationSoftware,KiCad,Pcbnew,(5.1.5)-3*
G04 #@! TF.CreationDate,2020-06-10T11:45:35+02:00*
G04 #@! TF.ProjectId,atmevse,61746d65-7673-4652-9e6b-696361645f70,rev?*
G04 #@! TF.SameCoordinates,Original*
G04 #@! TF.FileFunction,Soldermask,Bot*
G04 #@! TF.FilePolarity,Negative*
%FSLAX46Y46*%
G04 Gerber Fmt 4.6, Leading zero omitted, Abs format (unit mm)*
G04 Created by KiCad (PCBNEW (5.1.5)-3) date 2020-06-10 11:45:35*
%MOMM*%
%LPD*%
G04 APERTURE LIST*
%ADD10C,0.100000*%
G04 APERTURE END LIST*
D10*
G36*
X182738765Y-143298541D02*
G01*
X182854812Y-143321624D01*
X183018784Y-143389544D01*
X183166354Y-143488147D01*
X183291853Y-143613646D01*
X183390456Y-143761216D01*
X183458376Y-143925188D01*
X183493000Y-144099259D01*
X183493000Y-144276741D01*
X183458376Y-144450812D01*
X183390456Y-144614784D01*
X183291853Y-144762354D01*
X183166354Y-144887853D01*
X183018784Y-144986456D01*
X182854812Y-145054376D01*
X182738765Y-145077459D01*
X182680743Y-145089000D01*
X182503257Y-145089000D01*
X182445235Y-145077459D01*
X182329188Y-145054376D01*
X182165216Y-144986456D01*
X182017646Y-144887853D01*
X181892147Y-144762354D01*
X181793544Y-144614784D01*
X181725624Y-144450812D01*
X181691000Y-144276741D01*
X181691000Y-144099259D01*
X181725624Y-143925188D01*
X181793544Y-143761216D01*
X181892147Y-143613646D01*
X182017646Y-143488147D01*
X182165216Y-143389544D01*
X182329188Y-143321624D01*
X182445235Y-143298541D01*
X182503257Y-143287000D01*
X182680743Y-143287000D01*
X182738765Y-143298541D01*
G37*
G36*
X185278765Y-143298541D02*
G01*
X185394812Y-143321624D01*
X185558784Y-143389544D01*
X185706354Y-143488147D01*
X185831853Y-143613646D01*
X185930456Y-143761216D01*
X185998376Y-143925188D01*
X186033000Y-144099259D01*
X186033000Y-144276741D01*
X185998376Y-144450812D01*
X185930456Y-144614784D01*
X185831853Y-144762354D01*
X185706354Y-144887853D01*
X185558784Y-144986456D01*
X185394812Y-145054376D01*
X185278765Y-145077459D01*
X185220743Y-145089000D01*
X185043257Y-145089000D01*
X184985235Y-145077459D01*
X184869188Y-145054376D01*
X184705216Y-144986456D01*
X184557646Y-144887853D01*
X184432147Y-144762354D01*
X184333544Y-144614784D01*
X184265624Y-144450812D01*
X184231000Y-144276741D01*
X184231000Y-144099259D01*
X184265624Y-143925188D01*
X184333544Y-143761216D01*
X184432147Y-143613646D01*
X184557646Y-143488147D01*
X184705216Y-143389544D01*
X184869188Y-143321624D01*
X184985235Y-143298541D01*
X185043257Y-143287000D01*
X185220743Y-143287000D01*
X185278765Y-143298541D01*
G37*
G36*
X188573000Y-145089000D02*
G01*
X186771000Y-145089000D01*
X186771000Y-143287000D01*
X188573000Y-143287000D01*
X188573000Y-145089000D01*
G37*
G36*
X180198765Y-143298541D02*
G01*
X180314812Y-143321624D01*
X180478784Y-143389544D01*
X180626354Y-143488147D01*
X180751853Y-143613646D01*
X180850456Y-143761216D01*
X180918376Y-143925188D01*
X180953000Y-144099259D01*
X180953000Y-144276741D01*
X180918376Y-144450812D01*
X180850456Y-144614784D01*
X180751853Y-144762354D01*
X180626354Y-144887853D01*
X180478784Y-144986456D01*
X180314812Y-145054376D01*
X180198765Y-145077459D01*
X180140743Y-145089000D01*
X179963257Y-145089000D01*
X179905235Y-145077459D01*
X179789188Y-145054376D01*
X179625216Y-144986456D01*
X179477646Y-144887853D01*
X179352147Y-144762354D01*
X179253544Y-144614784D01*
X179185624Y-144450812D01*
X179151000Y-144276741D01*
X179151000Y-144099259D01*
X179185624Y-143925188D01*
X179253544Y-143761216D01*
X179352147Y-143613646D01*
X179477646Y-143488147D01*
X179625216Y-143389544D01*
X179789188Y-143321624D01*
X179905235Y-143298541D01*
X179963257Y-143287000D01*
X180140743Y-143287000D01*
X180198765Y-143298541D01*
G37*
G36*
X135106765Y-142730541D02*
G01*
X135222812Y-142753624D01*
X135386784Y-142821544D01*
X135534354Y-142920147D01*
X135659853Y-143045646D01*
X135758456Y-143193216D01*
X135826376Y-143357188D01*
X135861000Y-143531259D01*
X135861000Y-143708741D01*
X135826376Y-143882812D01*
X135758456Y-144046784D01*
X135659853Y-144194354D01*
X135534354Y-144319853D01*
X135386784Y-144418456D01*
X135222812Y-144486376D01*
X135106765Y-144509459D01*
X135048743Y-144521000D01*
X134871257Y-144521000D01*
X134813235Y-144509459D01*
X134697188Y-144486376D01*
X134533216Y-144418456D01*
X134385646Y-144319853D01*
X134260147Y-144194354D01*
X134161544Y-144046784D01*
X134093624Y-143882812D01*
X134059000Y-143708741D01*
X134059000Y-143531259D01*
X134093624Y-143357188D01*
X134161544Y-143193216D01*
X134260147Y-143045646D01*
X134385646Y-142920147D01*
X134533216Y-142821544D01*
X134697188Y-142753624D01*
X134813235Y-142730541D01*
X134871257Y-142719000D01*
X135048743Y-142719000D01*
X135106765Y-142730541D01*
G37*
G36*
X137646765Y-142730541D02*
G01*
X137762812Y-142753624D01*
X137926784Y-142821544D01*
X138074354Y-142920147D01*
X138199853Y-143045646D01*
X138298456Y-143193216D01*
X138366376Y-143357188D01*
X138401000Y-143531259D01*
X138401000Y-143708741D01*
X138366376Y-143882812D01*
X138298456Y-144046784D01*
X138199853Y-144194354D01*
X138074354Y-144319853D01*
X137926784Y-144418456D01*
X137762812Y-144486376D01*
X137646765Y-144509459D01*
X137588743Y-144521000D01*
X137411257Y-144521000D01*
X137353235Y-144509459D01*
X137237188Y-144486376D01*
X137073216Y-144418456D01*
X136925646Y-144319853D01*
X136800147Y-144194354D01*
X136701544Y-144046784D01*
X136633624Y-143882812D01*
X136599000Y-143708741D01*
X136599000Y-143531259D01*
X136633624Y-143357188D01*
X136701544Y-143193216D01*
X136800147Y-143045646D01*
X136925646Y-142920147D01*
X137073216Y-142821544D01*
X137237188Y-142753624D01*
X137353235Y-142730541D01*
X137411257Y-142719000D01*
X137588743Y-142719000D01*
X137646765Y-142730541D01*
G37*
G36*
X124356765Y-142730541D02*
G01*
X124472812Y-142753624D01*
X124636784Y-142821544D01*
X124784354Y-142920147D01*
X124909853Y-143045646D01*
X125008456Y-143193216D01*
X125076376Y-143357188D01*
X125111000Y-143531259D01*
X125111000Y-143708741D01*
X125076376Y-143882812D01*
X125008456Y-144046784D01*
X124909853Y-144194354D01*
X124784354Y-144319853D01*
X124636784Y-144418456D01*
X124472812Y-144486376D01*
X124356765Y-144509459D01*
X124298743Y-144521000D01*
X124121257Y-144521000D01*
X124063235Y-144509459D01*
X123947188Y-144486376D01*
X123783216Y-144418456D01*
X123635646Y-144319853D01*
X123510147Y-144194354D01*
X123411544Y-144046784D01*
X123343624Y-143882812D01*
X123309000Y-143708741D01*
X123309000Y-143531259D01*
X123343624Y-143357188D01*
X123411544Y-143193216D01*
X123510147Y-143045646D01*
X123635646Y-142920147D01*
X123783216Y-142821544D01*
X123947188Y-142753624D01*
X124063235Y-142730541D01*
X124121257Y-142719000D01*
X124298743Y-142719000D01*
X124356765Y-142730541D01*
G37*
G36*
X126896765Y-142730541D02*
G01*
X127012812Y-142753624D01*
X127176784Y-142821544D01*
X127324354Y-142920147D01*
X127449853Y-143045646D01*
X127548456Y-143193216D01*
X127616376Y-143357188D01*
X127651000Y-143531259D01*
X127651000Y-143708741D01*
X127616376Y-143882812D01*
X127548456Y-144046784D01*
X127449853Y-144194354D01*
X127324354Y-144319853D01*
X127176784Y-144418456D01*
X127012812Y-144486376D01*
X126896765Y-144509459D01*
X126838743Y-144521000D01*
X126661257Y-144521000D01*
X126603235Y-144509459D01*
X126487188Y-144486376D01*
X126323216Y-144418456D01*
X126175646Y-144319853D01*
X126050147Y-144194354D01*
X125951544Y-144046784D01*
X125883624Y-143882812D01*
X125849000Y-143708741D01*
X125849000Y-143531259D01*
X125883624Y-143357188D01*
X125951544Y-143193216D01*
X126050147Y-143045646D01*
X126175646Y-142920147D01*
X126323216Y-142821544D01*
X126487188Y-142753624D01*
X126603235Y-142730541D01*
X126661257Y-142719000D01*
X126838743Y-142719000D01*
X126896765Y-142730541D01*
G37*
G36*
X135106765Y-140190541D02*
G01*
X135222812Y-140213624D01*
X135386784Y-140281544D01*
X135534354Y-140380147D01*
X135659853Y-140505646D01*
X135758456Y-140653216D01*
X135826376Y-140817188D01*
X135861000Y-140991259D01*
X135861000Y-141168741D01*
X135826376Y-141342812D01*
X135758456Y-141506784D01*
X135659853Y-141654354D01*
X135534354Y-141779853D01*
X135386784Y-141878456D01*
X135222812Y-141946376D01*
X135106765Y-141969459D01*
X135048743Y-141981000D01*
X134871257Y-141981000D01*
X134813235Y-141969459D01*
X134697188Y-141946376D01*
X134533216Y-141878456D01*
X134385646Y-141779853D01*
X134260147Y-141654354D01*
X134161544Y-141506784D01*
X134093624Y-141342812D01*
X134059000Y-141168741D01*
X134059000Y-140991259D01*
X134093624Y-140817188D01*
X134161544Y-140653216D01*
X134260147Y-140505646D01*
X134385646Y-140380147D01*
X134533216Y-140281544D01*
X134697188Y-140213624D01*
X134813235Y-140190541D01*
X134871257Y-140179000D01*
X135048743Y-140179000D01*
X135106765Y-140190541D01*
G37*
G36*
X137646765Y-140190541D02*
G01*
X137762812Y-140213624D01*
X137926784Y-140281544D01*
X138074354Y-140380147D01*
X138199853Y-140505646D01*
X138298456Y-140653216D01*
X138366376Y-140817188D01*
X138401000Y-140991259D01*
X138401000Y-141168741D01*
X138366376Y-141342812D01*
X138298456Y-141506784D01*
X138199853Y-141654354D01*
X138074354Y-141779853D01*
X137926784Y-141878456D01*
X137762812Y-141946376D01*
X137646765Y-141969459D01*
X137588743Y-141981000D01*
X137411257Y-141981000D01*
X137353235Y-141969459D01*
X137237188Y-141946376D01*
X137073216Y-141878456D01*
X136925646Y-141779853D01*
X136800147Y-141654354D01*
X136701544Y-141506784D01*
X136633624Y-141342812D01*
X136599000Y-141168741D01*
X136599000Y-140991259D01*
X136633624Y-140817188D01*
X136701544Y-140653216D01*
X136800147Y-140505646D01*
X136925646Y-140380147D01*
X137073216Y-140281544D01*
X137237188Y-140213624D01*
X137353235Y-140190541D01*
X137411257Y-140179000D01*
X137588743Y-140179000D01*
X137646765Y-140190541D01*
G37*
G36*
X126896765Y-140190541D02*
G01*
X127012812Y-140213624D01*
X127176784Y-140281544D01*
X127324354Y-140380147D01*
X127449853Y-140505646D01*
X127548456Y-140653216D01*
X127616376Y-140817188D01*
X127651000Y-140991259D01*
X127651000Y-141168741D01*
X127616376Y-141342812D01*
X127548456Y-141506784D01*
X127449853Y-141654354D01*
X127324354Y-141779853D01*
X127176784Y-141878456D01*
X127012812Y-141946376D01*
X126896765Y-141969459D01*
X126838743Y-141981000D01*
X126661257Y-141981000D01*
X126603235Y-141969459D01*
X126487188Y-141946376D01*
X126323216Y-141878456D01*
X126175646Y-141779853D01*
X126050147Y-141654354D01*
X125951544Y-141506784D01*
X125883624Y-141342812D01*
X125849000Y-141168741D01*
X125849000Y-140991259D01*
X125883624Y-140817188D01*
X125951544Y-140653216D01*
X126050147Y-140505646D01*
X126175646Y-140380147D01*
X126323216Y-140281544D01*
X126487188Y-140213624D01*
X126603235Y-140190541D01*
X126661257Y-140179000D01*
X126838743Y-140179000D01*
X126896765Y-140190541D01*
G37*
G36*
X124356765Y-140190541D02*
G01*
X124472812Y-140213624D01*
X124636784Y-140281544D01*
X124784354Y-140380147D01*
X124909853Y-140505646D01*
X125008456Y-140653216D01*
X125076376Y-140817188D01*
X125111000Y-140991259D01*
X125111000Y-141168741D01*
X125076376Y-141342812D01*
X125008456Y-141506784D01*
X124909853Y-141654354D01*
X124784354Y-141779853D01*
X124636784Y-141878456D01*
X124472812Y-141946376D01*
X124356765Y-141969459D01*
X124298743Y-141981000D01*
X124121257Y-141981000D01*
X124063235Y-141969459D01*
X123947188Y-141946376D01*
X123783216Y-141878456D01*
X123635646Y-141779853D01*
X123510147Y-141654354D01*
X123411544Y-141506784D01*
X123343624Y-141342812D01*
X123309000Y-141168741D01*
X123309000Y-140991259D01*
X123343624Y-140817188D01*
X123411544Y-140653216D01*
X123510147Y-140505646D01*
X123635646Y-140380147D01*
X123783216Y-140281544D01*
X123947188Y-140213624D01*
X124063235Y-140190541D01*
X124121257Y-140179000D01*
X124298743Y-140179000D01*
X124356765Y-140190541D01*
G37*
G36*
X135106765Y-137650541D02*
G01*
X135222812Y-137673624D01*
X135386784Y-137741544D01*
X135534354Y-137840147D01*
X135659853Y-137965646D01*
X135758456Y-138113216D01*
X135826376Y-138277188D01*
X135861000Y-138451259D01*
X135861000Y-138628741D01*
X135826376Y-138802812D01*
X135758456Y-138966784D01*
X135659853Y-139114354D01*
X135534354Y-139239853D01*
X135386784Y-139338456D01*
X135222812Y-139406376D01*
X135106765Y-139429459D01*
X135048743Y-139441000D01*
X134871257Y-139441000D01*
X134813235Y-139429459D01*
X134697188Y-139406376D01*
X134533216Y-139338456D01*
X134385646Y-139239853D01*
X134260147Y-139114354D01*
X134161544Y-138966784D01*
X134093624Y-138802812D01*
X134059000Y-138628741D01*
X134059000Y-138451259D01*
X134093624Y-138277188D01*
X134161544Y-138113216D01*
X134260147Y-137965646D01*
X134385646Y-137840147D01*
X134533216Y-137741544D01*
X134697188Y-137673624D01*
X134813235Y-137650541D01*
X134871257Y-137639000D01*
X135048743Y-137639000D01*
X135106765Y-137650541D01*
G37*
G36*
X137646765Y-137650541D02*
G01*
X137762812Y-137673624D01*
X137926784Y-137741544D01*
X138074354Y-137840147D01*
X138199853Y-137965646D01*
X138298456Y-138113216D01*
X138366376Y-138277188D01*
X138401000Y-138451259D01*
X138401000Y-138628741D01*
X138366376Y-138802812D01*
X138298456Y-138966784D01*
X138199853Y-139114354D01*
X138074354Y-139239853D01*
X137926784Y-139338456D01*
X137762812Y-139406376D01*
X137646765Y-139429459D01*
X137588743Y-139441000D01*
X137411257Y-139441000D01*
X137353235Y-139429459D01*
X137237188Y-139406376D01*
X137073216Y-139338456D01*
X136925646Y-139239853D01*
X136800147Y-139114354D01*
X136701544Y-138966784D01*
X136633624Y-138802812D01*
X136599000Y-138628741D01*
X136599000Y-138451259D01*
X136633624Y-138277188D01*
X136701544Y-138113216D01*
X136800147Y-137965646D01*
X136925646Y-137840147D01*
X137073216Y-137741544D01*
X137237188Y-137673624D01*
X137353235Y-137650541D01*
X137411257Y-137639000D01*
X137588743Y-137639000D01*
X137646765Y-137650541D01*
G37*
G36*
X124356765Y-137650541D02*
G01*
X124472812Y-137673624D01*
X124636784Y-137741544D01*
X124784354Y-137840147D01*
X124909853Y-137965646D01*
X125008456Y-138113216D01*
X125076376Y-138277188D01*
X125111000Y-138451259D01*
X125111000Y-138628741D01*
X125076376Y-138802812D01*
X125008456Y-138966784D01*
X124909853Y-139114354D01*
X124784354Y-139239853D01*
X124636784Y-139338456D01*
X124472812Y-139406376D01*
X124356765Y-139429459D01*
X124298743Y-139441000D01*
X124121257Y-139441000D01*
X124063235Y-139429459D01*
X123947188Y-139406376D01*
X123783216Y-139338456D01*
X123635646Y-139239853D01*
X123510147Y-139114354D01*
X123411544Y-138966784D01*
X123343624Y-138802812D01*
X123309000Y-138628741D01*
X123309000Y-138451259D01*
X123343624Y-138277188D01*
X123411544Y-138113216D01*
X123510147Y-137965646D01*
X123635646Y-137840147D01*
X123783216Y-137741544D01*
X123947188Y-137673624D01*
X124063235Y-137650541D01*
X124121257Y-137639000D01*
X124298743Y-137639000D01*
X124356765Y-137650541D01*
G37*
G36*
X126896765Y-137650541D02*
G01*
X127012812Y-137673624D01*
X127176784Y-137741544D01*
X127324354Y-137840147D01*
X127449853Y-137965646D01*
X127548456Y-138113216D01*
X127616376Y-138277188D01*
X127651000Y-138451259D01*
X127651000Y-138628741D01*
X127616376Y-138802812D01*
X127548456Y-138966784D01*
X127449853Y-139114354D01*
X127324354Y-139239853D01*
X127176784Y-139338456D01*
X127012812Y-139406376D01*
X126896765Y-139429459D01*
X126838743Y-139441000D01*
X126661257Y-139441000D01*
X126603235Y-139429459D01*
X126487188Y-139406376D01*
X126323216Y-139338456D01*
X126175646Y-139239853D01*
X126050147Y-139114354D01*
X125951544Y-138966784D01*
X125883624Y-138802812D01*
X125849000Y-138628741D01*
X125849000Y-138451259D01*
X125883624Y-138277188D01*
X125951544Y-138113216D01*
X126050147Y-137965646D01*
X126175646Y-137840147D01*
X126323216Y-137741544D01*
X126487188Y-137673624D01*
X126603235Y-137650541D01*
X126661257Y-137639000D01*
X126838743Y-137639000D01*
X126896765Y-137650541D01*
G37*
G36*
X187036901Y-136845074D02*
G01*
X187264573Y-136939379D01*
X187469465Y-137076284D01*
X187643716Y-137250535D01*
X187780621Y-137455427D01*
X187874926Y-137683099D01*
X187923000Y-137924785D01*
X187923000Y-138171215D01*
X187874926Y-138412901D01*
X187780621Y-138640573D01*
X187643716Y-138845465D01*
X187469465Y-139019716D01*
X187264573Y-139156621D01*
X187036901Y-139250926D01*
X186795215Y-139299000D01*
X186548785Y-139299000D01*
X186307099Y-139250926D01*
X186079427Y-139156621D01*
X185874535Y-139019716D01*
X185700284Y-138845465D01*
X185563379Y-138640573D01*
X185469074Y-138412901D01*
X185421000Y-138171215D01*
X185421000Y-137924785D01*
X185469074Y-137683099D01*
X185563379Y-137455427D01*
X185700284Y-137250535D01*
X185874535Y-137076284D01*
X186079427Y-136939379D01*
X186307099Y-136845074D01*
X186548785Y-136797000D01*
X186795215Y-136797000D01*
X187036901Y-136845074D01*
G37*
G36*
X127651000Y-136901000D02*
G01*
X125849000Y-136901000D01*
X125849000Y-135099000D01*
X127651000Y-135099000D01*
X127651000Y-136901000D01*
G37*
G36*
X124356765Y-135110541D02*
G01*
X124472812Y-135133624D01*
X124636784Y-135201544D01*
X124784354Y-135300147D01*
X124909853Y-135425646D01*
X125008456Y-135573216D01*
X125076376Y-135737188D01*
X125111000Y-135911259D01*
X125111000Y-136088741D01*
X125076376Y-136262812D01*
X125008456Y-136426784D01*
X124909853Y-136574354D01*
X124784354Y-136699853D01*
X124636784Y-136798456D01*
X124472812Y-136866376D01*
X124356765Y-136889459D01*
X124298743Y-136901000D01*
X124121257Y-136901000D01*
X124063235Y-136889459D01*
X123947188Y-136866376D01*
X123783216Y-136798456D01*
X123635646Y-136699853D01*
X123510147Y-136574354D01*
X123411544Y-136426784D01*
X123343624Y-136262812D01*
X123309000Y-136088741D01*
X123309000Y-135911259D01*
X123343624Y-135737188D01*
X123411544Y-135573216D01*
X123510147Y-135425646D01*
X123635646Y-135300147D01*
X123783216Y-135201544D01*
X123947188Y-135133624D01*
X124063235Y-135110541D01*
X124121257Y-135099000D01*
X124298743Y-135099000D01*
X124356765Y-135110541D01*
G37*
G36*
X135106765Y-135110541D02*
G01*
X135222812Y-135133624D01*
X135386784Y-135201544D01*
X135534354Y-135300147D01*
X135659853Y-135425646D01*
X135758456Y-135573216D01*
X135826376Y-135737188D01*
X135861000Y-135911259D01*
X135861000Y-136088741D01*
X135826376Y-136262812D01*
X135758456Y-136426784D01*
X135659853Y-136574354D01*
X135534354Y-136699853D01*
X135386784Y-136798456D01*
X135222812Y-136866376D01*
X135106765Y-136889459D01*
X135048743Y-136901000D01*
X134871257Y-136901000D01*
X134813235Y-136889459D01*
X134697188Y-136866376D01*
X134533216Y-136798456D01*
X134385646Y-136699853D01*
X134260147Y-136574354D01*
X134161544Y-136426784D01*
X134093624Y-136262812D01*
X134059000Y-136088741D01*
X134059000Y-135911259D01*
X134093624Y-135737188D01*
X134161544Y-135573216D01*
X134260147Y-135425646D01*
X134385646Y-135300147D01*
X134533216Y-135201544D01*
X134697188Y-135133624D01*
X134813235Y-135110541D01*
X134871257Y-135099000D01*
X135048743Y-135099000D01*
X135106765Y-135110541D01*
G37*
G36*
X138401000Y-136901000D02*
G01*
X136599000Y-136901000D01*
X136599000Y-135099000D01*
X138401000Y-135099000D01*
X138401000Y-136901000D01*
G37*
G36*
X187036901Y-131765074D02*
G01*
X187264573Y-131859379D01*
X187469465Y-131996284D01*
X187643716Y-132170535D01*
X187780621Y-132375427D01*
X187874926Y-132603099D01*
X187923000Y-132844785D01*
X187923000Y-133091215D01*
X187874926Y-133332901D01*
X187780621Y-133560573D01*
X187643716Y-133765465D01*
X187469465Y-133939716D01*
X187264573Y-134076621D01*
X187036901Y-134170926D01*
X186795215Y-134219000D01*
X186548785Y-134219000D01*
X186307099Y-134170926D01*
X186079427Y-134076621D01*
X185874535Y-133939716D01*
X185700284Y-133765465D01*
X185563379Y-133560573D01*
X185469074Y-133332901D01*
X185421000Y-133091215D01*
X185421000Y-132844785D01*
X185469074Y-132603099D01*
X185563379Y-132375427D01*
X185700284Y-132170535D01*
X185874535Y-131996284D01*
X186079427Y-131859379D01*
X186307099Y-131765074D01*
X186548785Y-131717000D01*
X186795215Y-131717000D01*
X187036901Y-131765074D01*
G37*
G36*
X115551000Y-129521000D02*
G01*
X113049000Y-129521000D01*
X113049000Y-127019000D01*
X115551000Y-127019000D01*
X115551000Y-129521000D01*
G37*
G36*
X187036901Y-126685074D02*
G01*
X187264573Y-126779379D01*
X187469465Y-126916284D01*
X187643716Y-127090535D01*
X187780621Y-127295427D01*
X187874926Y-127523099D01*
X187923000Y-127764785D01*
X187923000Y-128011215D01*
X187874926Y-128252901D01*
X187780621Y-128480573D01*
X187643716Y-128685465D01*
X187469465Y-128859716D01*
X187264573Y-128996621D01*
X187036901Y-129090926D01*
X186795215Y-129139000D01*
X186548785Y-129139000D01*
X186307099Y-129090926D01*
X186079427Y-128996621D01*
X185874535Y-128859716D01*
X185700284Y-128685465D01*
X185563379Y-128480573D01*
X185469074Y-128252901D01*
X185421000Y-128011215D01*
X185421000Y-127764785D01*
X185469074Y-127523099D01*
X185563379Y-127295427D01*
X185700284Y-127090535D01*
X185874535Y-126916284D01*
X186079427Y-126779379D01*
X186307099Y-126685074D01*
X186548785Y-126637000D01*
X186795215Y-126637000D01*
X187036901Y-126685074D01*
G37*
G36*
X187036901Y-121605074D02*
G01*
X187264573Y-121699379D01*
X187469465Y-121836284D01*
X187643716Y-122010535D01*
X187780621Y-122215427D01*
X187874926Y-122443099D01*
X187923000Y-122684785D01*
X187923000Y-122931215D01*
X187874926Y-123172901D01*
X187780621Y-123400573D01*
X187643716Y-123605465D01*
X187469465Y-123779716D01*
X187264573Y-123916621D01*
X187036901Y-124010926D01*
X186795215Y-124059000D01*
X186548785Y-124059000D01*
X186307099Y-124010926D01*
X186079427Y-123916621D01*
X185874535Y-123779716D01*
X185700284Y-123605465D01*
X185563379Y-123400573D01*
X185469074Y-123172901D01*
X185421000Y-122931215D01*
X185421000Y-122684785D01*
X185469074Y-122443099D01*
X185563379Y-122215427D01*
X185700284Y-122010535D01*
X185874535Y-121836284D01*
X186079427Y-121699379D01*
X186307099Y-121605074D01*
X186548785Y-121557000D01*
X186795215Y-121557000D01*
X187036901Y-121605074D01*
G37*
G36*
X114664901Y-119447074D02*
G01*
X114892573Y-119541379D01*
X115097465Y-119678284D01*
X115271716Y-119852535D01*
X115408621Y-120057427D01*
X115502926Y-120285099D01*
X115551000Y-120526785D01*
X115551000Y-120773215D01*
X115502926Y-121014901D01*
X115408621Y-121242573D01*
X115271716Y-121447465D01*
X115097465Y-121621716D01*
X114892573Y-121758621D01*
X114664901Y-121852926D01*
X114423215Y-121901000D01*
X114176785Y-121901000D01*
X113935099Y-121852926D01*
X113707427Y-121758621D01*
X113502535Y-121621716D01*
X113328284Y-121447465D01*
X113191379Y-121242573D01*
X113097074Y-121014901D01*
X113049000Y-120773215D01*
X113049000Y-120526785D01*
X113097074Y-120285099D01*
X113191379Y-120057427D01*
X113328284Y-119852535D01*
X113502535Y-119678284D01*
X113707427Y-119541379D01*
X113935099Y-119447074D01*
X114176785Y-119399000D01*
X114423215Y-119399000D01*
X114664901Y-119447074D01*
G37*
G36*
X187036901Y-116525074D02*
G01*
X187264573Y-116619379D01*
X187469465Y-116756284D01*
X187643716Y-116930535D01*
X187780621Y-117135427D01*
X187874926Y-117363099D01*
X187923000Y-117604785D01*
X187923000Y-117851215D01*
X187874926Y-118092901D01*
X187780621Y-118320573D01*
X187643716Y-118525465D01*
X187469465Y-118699716D01*
X187264573Y-118836621D01*
X187036901Y-118930926D01*
X186795215Y-118979000D01*
X186548785Y-118979000D01*
X186307099Y-118930926D01*
X186079427Y-118836621D01*
X185874535Y-118699716D01*
X185700284Y-118525465D01*
X185563379Y-118320573D01*
X185469074Y-118092901D01*
X185421000Y-117851215D01*
X185421000Y-117604785D01*
X185469074Y-117363099D01*
X185563379Y-117135427D01*
X185700284Y-116930535D01*
X185874535Y-116756284D01*
X186079427Y-116619379D01*
X186307099Y-116525074D01*
X186548785Y-116477000D01*
X186795215Y-116477000D01*
X187036901Y-116525074D01*
G37*
G36*
X114664901Y-111827074D02*
G01*
X114892573Y-111921379D01*
X115097465Y-112058284D01*
X115271716Y-112232535D01*
X115408621Y-112437427D01*
X115502926Y-112665099D01*
X115551000Y-112906785D01*
X115551000Y-113153215D01*
X115502926Y-113394901D01*
X115502925Y-113394903D01*
X115409805Y-113619716D01*
X115408621Y-113622573D01*
X115271716Y-113827465D01*
X115097465Y-114001716D01*
X114892573Y-114138621D01*
X114664901Y-114232926D01*
X114423215Y-114281000D01*
X114176785Y-114281000D01*
X113935099Y-114232926D01*
X113707427Y-114138621D01*
X113502535Y-114001716D01*
X113328284Y-113827465D01*
X113191379Y-113622573D01*
X113190196Y-113619716D01*
X113097075Y-113394903D01*
X113097074Y-113394901D01*
X113049000Y-113153215D01*
X113049000Y-112906785D01*
X113097074Y-112665099D01*
X113191379Y-112437427D01*
X113328284Y-112232535D01*
X113502535Y-112058284D01*
X113707427Y-111921379D01*
X113935099Y-111827074D01*
X114176785Y-111779000D01*
X114423215Y-111779000D01*
X114664901Y-111827074D01*
G37*
G36*
X124527394Y-112085546D02*
G01*
X124700469Y-112157236D01*
X124856226Y-112261309D01*
X124988691Y-112393774D01*
X125092764Y-112549531D01*
X125164454Y-112722606D01*
X125201000Y-112906333D01*
X125201000Y-113093667D01*
X125164454Y-113277394D01*
X125092764Y-113450469D01*
X124988691Y-113606226D01*
X124856226Y-113738691D01*
X124700469Y-113842764D01*
X124700468Y-113842765D01*
X124700467Y-113842765D01*
X124613931Y-113878609D01*
X124527394Y-113914454D01*
X124343667Y-113951000D01*
X124156333Y-113951000D01*
X123972606Y-113914454D01*
X123886069Y-113878609D01*
X123799533Y-113842765D01*
X123799532Y-113842765D01*
X123799531Y-113842764D01*
X123643774Y-113738691D01*
X123511309Y-113606226D01*
X123407236Y-113450469D01*
X123335546Y-113277394D01*
X123299000Y-113093667D01*
X123299000Y-112906333D01*
X123335546Y-112722606D01*
X123407236Y-112549531D01*
X123511309Y-112393774D01*
X123643774Y-112261309D01*
X123799531Y-112157236D01*
X123972606Y-112085546D01*
X124156333Y-112049000D01*
X124343667Y-112049000D01*
X124527394Y-112085546D01*
G37*
G36*
X187036901Y-111445074D02*
G01*
X187264573Y-111539379D01*
X187469465Y-111676284D01*
X187643716Y-111850535D01*
X187776327Y-112049000D01*
X187780622Y-112055429D01*
X187781805Y-112058285D01*
X187874926Y-112283099D01*
X187923000Y-112524785D01*
X187923000Y-112771215D01*
X187874926Y-113012901D01*
X187780621Y-113240573D01*
X187643716Y-113445465D01*
X187469465Y-113619716D01*
X187264573Y-113756621D01*
X187036901Y-113850926D01*
X186795215Y-113899000D01*
X186548785Y-113899000D01*
X186307099Y-113850926D01*
X186079427Y-113756621D01*
X185874535Y-113619716D01*
X185700284Y-113445465D01*
X185563379Y-113240573D01*
X185469074Y-113012901D01*
X185421000Y-112771215D01*
X185421000Y-112524785D01*
X185469074Y-112283099D01*
X185562195Y-112058285D01*
X185563378Y-112055429D01*
X185567674Y-112049000D01*
X185700284Y-111850535D01*
X185874535Y-111676284D01*
X186079427Y-111539379D01*
X186307099Y-111445074D01*
X186548785Y-111397000D01*
X186795215Y-111397000D01*
X187036901Y-111445074D01*
G37*
G36*
X145886252Y-106579818D02*
G01*
X145886254Y-106579819D01*
X145886255Y-106579819D01*
X146259513Y-106734427D01*
X146259515Y-106734428D01*
X146595436Y-106958883D01*
X146881117Y-107244564D01*
X147105572Y-107580485D01*
X147260182Y-107953748D01*
X147339000Y-108349992D01*
X147339000Y-108754008D01*
X147260182Y-109150252D01*
X147105572Y-109523515D01*
X146881117Y-109859436D01*
X146595436Y-110145117D01*
X146259515Y-110369572D01*
X146259514Y-110369573D01*
X146259513Y-110369573D01*
X145886255Y-110524181D01*
X145886254Y-110524181D01*
X145886252Y-110524182D01*
X145490008Y-110603000D01*
X145085992Y-110603000D01*
X144689748Y-110524182D01*
X144689746Y-110524181D01*
X144689745Y-110524181D01*
X144316487Y-110369573D01*
X144316486Y-110369573D01*
X144316485Y-110369572D01*
X143980564Y-110145117D01*
X143694883Y-109859436D01*
X143470428Y-109523515D01*
X143315818Y-109150252D01*
X143237000Y-108754008D01*
X143237000Y-108349992D01*
X143315818Y-107953748D01*
X143470428Y-107580485D01*
X143694883Y-107244564D01*
X143980564Y-106958883D01*
X144316485Y-106734428D01*
X144316487Y-106734427D01*
X144689745Y-106579819D01*
X144689746Y-106579819D01*
X144689748Y-106579818D01*
X145085992Y-106501000D01*
X145490008Y-106501000D01*
X145886252Y-106579818D01*
G37*
G36*
X187036901Y-106365074D02*
G01*
X187036904Y-106365075D01*
X187036903Y-106365075D01*
X187244345Y-106451000D01*
X187264573Y-106459379D01*
X187469465Y-106596284D01*
X187643716Y-106770535D01*
X187780621Y-106975427D01*
X187874926Y-107203099D01*
X187923000Y-107444785D01*
X187923000Y-107691215D01*
X187874926Y-107932901D01*
X187780621Y-108160573D01*
X187643716Y-108365465D01*
X187469465Y-108539716D01*
X187264573Y-108676621D01*
X187036901Y-108770926D01*
X186795215Y-108819000D01*
X186548785Y-108819000D01*
X186307099Y-108770926D01*
X186079427Y-108676621D01*
X185874535Y-108539716D01*
X185700284Y-108365465D01*
X185563379Y-108160573D01*
X185469074Y-107932901D01*
X185421000Y-107691215D01*
X185421000Y-107444785D01*
X185469074Y-107203099D01*
X185563379Y-106975427D01*
X185700284Y-106770535D01*
X185874535Y-106596284D01*
X186079427Y-106459379D01*
X186099656Y-106451000D01*
X186307097Y-106365075D01*
X186307096Y-106365075D01*
X186307099Y-106365074D01*
X186548785Y-106317000D01*
X186795215Y-106317000D01*
X187036901Y-106365074D01*
G37*
G36*
X114664901Y-104207074D02*
G01*
X114892573Y-104301379D01*
X115097465Y-104438284D01*
X115271716Y-104612535D01*
X115408621Y-104817427D01*
X115502926Y-105045099D01*
X115551000Y-105286785D01*
X115551000Y-105533215D01*
X115502926Y-105774901D01*
X115408621Y-106002573D01*
X115271716Y-106207465D01*
X115097465Y-106381716D01*
X114892573Y-106518621D01*
X114664901Y-106612926D01*
X114423215Y-106661000D01*
X114176785Y-106661000D01*
X113935099Y-106612926D01*
X113707427Y-106518621D01*
X113502535Y-106381716D01*
X113328284Y-106207465D01*
X113191379Y-106002573D01*
X113097074Y-105774901D01*
X113049000Y-105533215D01*
X113049000Y-105286785D01*
X113097074Y-105045099D01*
X113191379Y-104817427D01*
X113328284Y-104612535D01*
X113502535Y-104438284D01*
X113707427Y-104301379D01*
X113935099Y-104207074D01*
X114176785Y-104159000D01*
X114423215Y-104159000D01*
X114664901Y-104207074D01*
G37*
G36*
X122327394Y-104585546D02*
G01*
X122500469Y-104657236D01*
X122656226Y-104761309D01*
X122788691Y-104893774D01*
X122892764Y-105049531D01*
X122964454Y-105222606D01*
X123001000Y-105406333D01*
X123001000Y-105593667D01*
X122964454Y-105777394D01*
X122892764Y-105950469D01*
X122788691Y-106106226D01*
X122656226Y-106238691D01*
X122500469Y-106342764D01*
X122500468Y-106342765D01*
X122500467Y-106342765D01*
X122413932Y-106378609D01*
X122327394Y-106414454D01*
X122143667Y-106451000D01*
X121956333Y-106451000D01*
X121772606Y-106414454D01*
X121686068Y-106378609D01*
X121599533Y-106342765D01*
X121599532Y-106342765D01*
X121599531Y-106342764D01*
X121443774Y-106238691D01*
X121311309Y-106106226D01*
X121207236Y-105950469D01*
X121135546Y-105777394D01*
X121099000Y-105593667D01*
X121099000Y-105406333D01*
X121135546Y-105222606D01*
X121207236Y-105049531D01*
X121311309Y-104893774D01*
X121443774Y-104761309D01*
X121599531Y-104657236D01*
X121772606Y-104585546D01*
X121956333Y-104549000D01*
X122143667Y-104549000D01*
X122327394Y-104585546D01*
G37*
G36*
X131227394Y-103085546D02*
G01*
X131400469Y-103157236D01*
X131556226Y-103261309D01*
X131688691Y-103393774D01*
X131792764Y-103549531D01*
X131864454Y-103722606D01*
X131901000Y-103906333D01*
X131901000Y-104093667D01*
X131864454Y-104277394D01*
X131792764Y-104450469D01*
X131688691Y-104606226D01*
X131556226Y-104738691D01*
X131400469Y-104842764D01*
X131227394Y-104914454D01*
X131043667Y-104951000D01*
X130856333Y-104951000D01*
X130672606Y-104914454D01*
X130499531Y-104842764D01*
X130343774Y-104738691D01*
X130211309Y-104606226D01*
X130107236Y-104450469D01*
X130035546Y-104277394D01*
X129999000Y-104093667D01*
X129999000Y-103906333D01*
X130035546Y-103722606D01*
X130107236Y-103549531D01*
X130211309Y-103393774D01*
X130343774Y-103261309D01*
X130499531Y-103157236D01*
X130672606Y-103085546D01*
X130856333Y-103049000D01*
X131043667Y-103049000D01*
X131227394Y-103085546D01*
G37*
G36*
X187036901Y-101285074D02*
G01*
X187264573Y-101379379D01*
X187469465Y-101516284D01*
X187643716Y-101690535D01*
X187780621Y-101895427D01*
X187874926Y-102123099D01*
X187923000Y-102364785D01*
X187923000Y-102611215D01*
X187874926Y-102852901D01*
X187780621Y-103080573D01*
X187643716Y-103285465D01*
X187469465Y-103459716D01*
X187264573Y-103596621D01*
X187036901Y-103690926D01*
X186795215Y-103739000D01*
X186548785Y-103739000D01*
X186307099Y-103690926D01*
X186079427Y-103596621D01*
X185874535Y-103459716D01*
X185700284Y-103285465D01*
X185563379Y-103080573D01*
X185469074Y-102852901D01*
X185421000Y-102611215D01*
X185421000Y-102364785D01*
X185469074Y-102123099D01*
X185563379Y-101895427D01*
X185700284Y-101690535D01*
X185874535Y-101516284D01*
X186079427Y-101379379D01*
X186307099Y-101285074D01*
X186548785Y-101237000D01*
X186795215Y-101237000D01*
X187036901Y-101285074D01*
G37*
G36*
X147339000Y-100603000D02*
G01*
X143237000Y-100603000D01*
X143237000Y-96501000D01*
X147339000Y-96501000D01*
X147339000Y-100603000D01*
G37*
G36*
X114664901Y-96587074D02*
G01*
X114892573Y-96681379D01*
X115097465Y-96818284D01*
X115271716Y-96992535D01*
X115408621Y-97197427D01*
X115502926Y-97425099D01*
X115551000Y-97666785D01*
X115551000Y-97913215D01*
X115502926Y-98154901D01*
X115502925Y-98154903D01*
X115409805Y-98379716D01*
X115408621Y-98382573D01*
X115271716Y-98587465D01*
X115097465Y-98761716D01*
X114892573Y-98898621D01*
X114664901Y-98992926D01*
X114423215Y-99041000D01*
X114176785Y-99041000D01*
X113935099Y-98992926D01*
X113707427Y-98898621D01*
X113502535Y-98761716D01*
X113328284Y-98587465D01*
X113191379Y-98382573D01*
X113190196Y-98379716D01*
X113097075Y-98154903D01*
X113097074Y-98154901D01*
X113049000Y-97913215D01*
X113049000Y-97666785D01*
X113097074Y-97425099D01*
X113191379Y-97197427D01*
X113328284Y-96992535D01*
X113502535Y-96818284D01*
X113707427Y-96681379D01*
X113935099Y-96587074D01*
X114176785Y-96539000D01*
X114423215Y-96539000D01*
X114664901Y-96587074D01*
G37*
G36*
X187036901Y-96205074D02*
G01*
X187264573Y-96299379D01*
X187469465Y-96436284D01*
X187643716Y-96610535D01*
X187691053Y-96681379D01*
X187780622Y-96815429D01*
X187781805Y-96818285D01*
X187874926Y-97043099D01*
X187923000Y-97284785D01*
X187923000Y-97531215D01*
X187874926Y-97772901D01*
X187780621Y-98000573D01*
X187643716Y-98205465D01*
X187469465Y-98379716D01*
X187264573Y-98516621D01*
X187036901Y-98610926D01*
X186795215Y-98659000D01*
X186548785Y-98659000D01*
X186307099Y-98610926D01*
X186079427Y-98516621D01*
X185874535Y-98379716D01*
X185700284Y-98205465D01*
X185563379Y-98000573D01*
X185469074Y-97772901D01*
X185421000Y-97531215D01*
X185421000Y-97284785D01*
X185469074Y-97043099D01*
X185562195Y-96818285D01*
X185563378Y-96815429D01*
X185652948Y-96681379D01*
X185700284Y-96610535D01*
X185874535Y-96436284D01*
X186079427Y-96299379D01*
X186307099Y-96205074D01*
X186548785Y-96157000D01*
X186795215Y-96157000D01*
X187036901Y-96205074D01*
G37*
G36*
X129027394Y-95585546D02*
G01*
X129200469Y-95657236D01*
X129356226Y-95761309D01*
X129488691Y-95893774D01*
X129592764Y-96049531D01*
X129664454Y-96222606D01*
X129701000Y-96406333D01*
X129701000Y-96593667D01*
X129664454Y-96777394D01*
X129592764Y-96950469D01*
X129488691Y-97106226D01*
X129356226Y-97238691D01*
X129200469Y-97342764D01*
X129027394Y-97414454D01*
X128843667Y-97451000D01*
X128656333Y-97451000D01*
X128472606Y-97414454D01*
X128299531Y-97342764D01*
X128143774Y-97238691D01*
X128011309Y-97106226D01*
X127907236Y-96950469D01*
X127835546Y-96777394D01*
X127799000Y-96593667D01*
X127799000Y-96406333D01*
X127835546Y-96222606D01*
X127907236Y-96049531D01*
X128011309Y-95893774D01*
X128143774Y-95761309D01*
X128299531Y-95657236D01*
X128472606Y-95585546D01*
X128656333Y-95549000D01*
X128843667Y-95549000D01*
X129027394Y-95585546D01*
G37*
G36*
X124777394Y-93585546D02*
G01*
X124950469Y-93657236D01*
X125106226Y-93761309D01*
X125238691Y-93893774D01*
X125342764Y-94049531D01*
X125414454Y-94222606D01*
X125451000Y-94406333D01*
X125451000Y-94593667D01*
X125414454Y-94777394D01*
X125342764Y-94950469D01*
X125238691Y-95106226D01*
X125106226Y-95238691D01*
X124950469Y-95342764D01*
X124777394Y-95414454D01*
X124593667Y-95451000D01*
X124406333Y-95451000D01*
X124222606Y-95414454D01*
X124049531Y-95342764D01*
X123893774Y-95238691D01*
X123761309Y-95106226D01*
X123657236Y-94950469D01*
X123585546Y-94777394D01*
X123549000Y-94593667D01*
X123549000Y-94406333D01*
X123585546Y-94222606D01*
X123657236Y-94049531D01*
X123761309Y-93893774D01*
X123893774Y-93761309D01*
X124049531Y-93657236D01*
X124222606Y-93585546D01*
X124406333Y-93549000D01*
X124593667Y-93549000D01*
X124777394Y-93585546D01*
G37*
G36*
X187036901Y-91125074D02*
G01*
X187264573Y-91219379D01*
X187469465Y-91356284D01*
X187643716Y-91530535D01*
X187780621Y-91735427D01*
X187874926Y-91963099D01*
X187923000Y-92204785D01*
X187923000Y-92451215D01*
X187874926Y-92692901D01*
X187780621Y-92920573D01*
X187643716Y-93125465D01*
X187469465Y-93299716D01*
X187264573Y-93436621D01*
X187036901Y-93530926D01*
X186795215Y-93579000D01*
X186548785Y-93579000D01*
X186307099Y-93530926D01*
X186079427Y-93436621D01*
X185874535Y-93299716D01*
X185700284Y-93125465D01*
X185563379Y-92920573D01*
X185469074Y-92692901D01*
X185421000Y-92451215D01*
X185421000Y-92204785D01*
X185469074Y-91963099D01*
X185563379Y-91735427D01*
X185700284Y-91530535D01*
X185874535Y-91356284D01*
X186079427Y-91219379D01*
X186307099Y-91125074D01*
X186548785Y-91077000D01*
X186795215Y-91077000D01*
X187036901Y-91125074D01*
G37*
G36*
X114664901Y-88967074D02*
G01*
X114892573Y-89061379D01*
X115097465Y-89198284D01*
X115271716Y-89372535D01*
X115408621Y-89577427D01*
X115502926Y-89805099D01*
X115551000Y-90046785D01*
X115551000Y-90293215D01*
X115502926Y-90534901D01*
X115408621Y-90762573D01*
X115271716Y-90967465D01*
X115097465Y-91141716D01*
X114892573Y-91278621D01*
X114664901Y-91372926D01*
X114423215Y-91421000D01*
X114176785Y-91421000D01*
X113935099Y-91372926D01*
X113707427Y-91278621D01*
X113502535Y-91141716D01*
X113328284Y-90967465D01*
X113191379Y-90762573D01*
X113097074Y-90534901D01*
X113049000Y-90293215D01*
X113049000Y-90046785D01*
X113097074Y-89805099D01*
X113191379Y-89577427D01*
X113328284Y-89372535D01*
X113502535Y-89198284D01*
X113707427Y-89061379D01*
X113935099Y-88967074D01*
X114176785Y-88919000D01*
X114423215Y-88919000D01*
X114664901Y-88967074D01*
G37*
G36*
X187036901Y-86045074D02*
G01*
X187264573Y-86139379D01*
X187469465Y-86276284D01*
X187643716Y-86450535D01*
X187780621Y-86655427D01*
X187874926Y-86883099D01*
X187923000Y-87124785D01*
X187923000Y-87371215D01*
X187874926Y-87612901D01*
X187780621Y-87840573D01*
X187643716Y-88045465D01*
X187469465Y-88219716D01*
X187264573Y-88356621D01*
X187036901Y-88450926D01*
X186795215Y-88499000D01*
X186548785Y-88499000D01*
X186307099Y-88450926D01*
X186079427Y-88356621D01*
X185874535Y-88219716D01*
X185700284Y-88045465D01*
X185563379Y-87840573D01*
X185469074Y-87612901D01*
X185421000Y-87371215D01*
X185421000Y-87124785D01*
X185469074Y-86883099D01*
X185563379Y-86655427D01*
X185700284Y-86450535D01*
X185874535Y-86276284D01*
X186079427Y-86139379D01*
X186307099Y-86045074D01*
X186548785Y-85997000D01*
X186795215Y-85997000D01*
X187036901Y-86045074D01*
G37*
G36*
X122577394Y-86085546D02*
G01*
X122577397Y-86085547D01*
X122577396Y-86085547D01*
X122707359Y-86139379D01*
X122750469Y-86157236D01*
X122906226Y-86261309D01*
X123038691Y-86393774D01*
X123142764Y-86549531D01*
X123214454Y-86722606D01*
X123251000Y-86906333D01*
X123251000Y-87093667D01*
X123214454Y-87277394D01*
X123142764Y-87450469D01*
X123038691Y-87606226D01*
X122906226Y-87738691D01*
X122750469Y-87842764D01*
X122577394Y-87914454D01*
X122393667Y-87951000D01*
X122206333Y-87951000D01*
X122022606Y-87914454D01*
X121849531Y-87842764D01*
X121693774Y-87738691D01*
X121561309Y-87606226D01*
X121457236Y-87450469D01*
X121385546Y-87277394D01*
X121349000Y-87093667D01*
X121349000Y-86906333D01*
X121385546Y-86722606D01*
X121457236Y-86549531D01*
X121561309Y-86393774D01*
X121693774Y-86261309D01*
X121849531Y-86157236D01*
X121892642Y-86139379D01*
X122022604Y-86085547D01*
X122022603Y-86085547D01*
X122022606Y-86085546D01*
X122206333Y-86049000D01*
X122393667Y-86049000D01*
X122577394Y-86085546D01*
G37*
G36*
X114664901Y-81347074D02*
G01*
X114892573Y-81441379D01*
X115097465Y-81578284D01*
X115271716Y-81752535D01*
X115408621Y-81957427D01*
X115502926Y-82185099D01*
X115551000Y-82426785D01*
X115551000Y-82673215D01*
X115502926Y-82914901D01*
X115502925Y-82914903D01*
X115409805Y-83139716D01*
X115408621Y-83142573D01*
X115271716Y-83347465D01*
X115097465Y-83521716D01*
X114892573Y-83658621D01*
X114664901Y-83752926D01*
X114423215Y-83801000D01*
X114176785Y-83801000D01*
X113935099Y-83752926D01*
X113707427Y-83658621D01*
X113502535Y-83521716D01*
X113328284Y-83347465D01*
X113191379Y-83142573D01*
X113190196Y-83139716D01*
X113097075Y-82914903D01*
X113097074Y-82914901D01*
X113049000Y-82673215D01*
X113049000Y-82426785D01*
X113097074Y-82185099D01*
X113191379Y-81957427D01*
X113328284Y-81752535D01*
X113502535Y-81578284D01*
X113707427Y-81441379D01*
X113935099Y-81347074D01*
X114176785Y-81299000D01*
X114423215Y-81299000D01*
X114664901Y-81347074D01*
G37*
G36*
X187036901Y-80965074D02*
G01*
X187264573Y-81059379D01*
X187469465Y-81196284D01*
X187643716Y-81370535D01*
X187691053Y-81441379D01*
X187780622Y-81575429D01*
X187781805Y-81578285D01*
X187874926Y-81803099D01*
X187923000Y-82044785D01*
X187923000Y-82291215D01*
X187874926Y-82532901D01*
X187780621Y-82760573D01*
X187643716Y-82965465D01*
X187469465Y-83139716D01*
X187264573Y-83276621D01*
X187036901Y-83370926D01*
X186795215Y-83419000D01*
X186548785Y-83419000D01*
X186307099Y-83370926D01*
X186079427Y-83276621D01*
X185874535Y-83139716D01*
X185700284Y-82965465D01*
X185563379Y-82760573D01*
X185469074Y-82532901D01*
X185421000Y-82291215D01*
X185421000Y-82044785D01*
X185469074Y-81803099D01*
X185562195Y-81578285D01*
X185563378Y-81575429D01*
X185652948Y-81441379D01*
X185700284Y-81370535D01*
X185874535Y-81196284D01*
X186079427Y-81059379D01*
X186307099Y-80965074D01*
X186548785Y-80917000D01*
X186795215Y-80917000D01*
X187036901Y-80965074D01*
G37*
G36*
X187036901Y-75885074D02*
G01*
X187264573Y-75979379D01*
X187469465Y-76116284D01*
X187643716Y-76290535D01*
X187780621Y-76495427D01*
X187874926Y-76723099D01*
X187923000Y-76964785D01*
X187923000Y-77211215D01*
X187874926Y-77452901D01*
X187780621Y-77680573D01*
X187643716Y-77885465D01*
X187469465Y-78059716D01*
X187264573Y-78196621D01*
X187036901Y-78290926D01*
X186795215Y-78339000D01*
X186548785Y-78339000D01*
X186307099Y-78290926D01*
X186079427Y-78196621D01*
X185874535Y-78059716D01*
X185700284Y-77885465D01*
X185563379Y-77680573D01*
X185469074Y-77452901D01*
X185421000Y-77211215D01*
X185421000Y-76964785D01*
X185469074Y-76723099D01*
X185563379Y-76495427D01*
X185700284Y-76290535D01*
X185874535Y-76116284D01*
X186079427Y-75979379D01*
X186307099Y-75885074D01*
X186548785Y-75837000D01*
X186795215Y-75837000D01*
X187036901Y-75885074D01*
G37*
G36*
X114664901Y-73727074D02*
G01*
X114892573Y-73821379D01*
X115097465Y-73958284D01*
X115271716Y-74132535D01*
X115408621Y-74337427D01*
X115502926Y-74565099D01*
X115551000Y-74806785D01*
X115551000Y-75053215D01*
X115502926Y-75294901D01*
X115408621Y-75522573D01*
X115271716Y-75727465D01*
X115097465Y-75901716D01*
X114892573Y-76038621D01*
X114664901Y-76132926D01*
X114423215Y-76181000D01*
X114176785Y-76181000D01*
X113935099Y-76132926D01*
X113707427Y-76038621D01*
X113502535Y-75901716D01*
X113328284Y-75727465D01*
X113191379Y-75522573D01*
X113097074Y-75294901D01*
X113049000Y-75053215D01*
X113049000Y-74806785D01*
X113097074Y-74565099D01*
X113191379Y-74337427D01*
X113328284Y-74132535D01*
X113502535Y-73958284D01*
X113707427Y-73821379D01*
X113935099Y-73727074D01*
X114176785Y-73679000D01*
X114423215Y-73679000D01*
X114664901Y-73727074D01*
G37*
G36*
X187036901Y-70805074D02*
G01*
X187264573Y-70899379D01*
X187469465Y-71036284D01*
X187643716Y-71210535D01*
X187780621Y-71415427D01*
X187874926Y-71643099D01*
X187923000Y-71884785D01*
X187923000Y-72131215D01*
X187874926Y-72372901D01*
X187780621Y-72600573D01*
X187643716Y-72805465D01*
X187469465Y-72979716D01*
X187264573Y-73116621D01*
X187036901Y-73210926D01*
X186795215Y-73259000D01*
X186548785Y-73259000D01*
X186307099Y-73210926D01*
X186079427Y-73116621D01*
X185874535Y-72979716D01*
X185700284Y-72805465D01*
X185563379Y-72600573D01*
X185469074Y-72372901D01*
X185421000Y-72131215D01*
X185421000Y-71884785D01*
X185469074Y-71643099D01*
X185563379Y-71415427D01*
X185700284Y-71210535D01*
X185874535Y-71036284D01*
X186079427Y-70899379D01*
X186307099Y-70805074D01*
X186548785Y-70757000D01*
X186795215Y-70757000D01*
X187036901Y-70805074D01*
G37*
G36*
X114664901Y-66107074D02*
G01*
X114892573Y-66201379D01*
X115097465Y-66338284D01*
X115271716Y-66512535D01*
X115408621Y-66717427D01*
X115502926Y-66945099D01*
X115551000Y-67186785D01*
X115551000Y-67433215D01*
X115502926Y-67674901D01*
X115502925Y-67674903D01*
X115409805Y-67899716D01*
X115408621Y-67902573D01*
X115271716Y-68107465D01*
X115097465Y-68281716D01*
X114892573Y-68418621D01*
X114664901Y-68512926D01*
X114423215Y-68561000D01*
X114176785Y-68561000D01*
X113935099Y-68512926D01*
X113707427Y-68418621D01*
X113502535Y-68281716D01*
X113328284Y-68107465D01*
X113191379Y-67902573D01*
X113190196Y-67899716D01*
X113097075Y-67674903D01*
X113097074Y-67674901D01*
X113049000Y-67433215D01*
X113049000Y-67186785D01*
X113097074Y-66945099D01*
X113191379Y-66717427D01*
X113328284Y-66512535D01*
X113502535Y-66338284D01*
X113707427Y-66201379D01*
X113935099Y-66107074D01*
X114176785Y-66059000D01*
X114423215Y-66059000D01*
X114664901Y-66107074D01*
G37*
G36*
X187036901Y-65725074D02*
G01*
X187264573Y-65819379D01*
X187469465Y-65956284D01*
X187643716Y-66130535D01*
X187691053Y-66201379D01*
X187780622Y-66335429D01*
X187781805Y-66338285D01*
X187874926Y-66563099D01*
X187923000Y-66804785D01*
X187923000Y-67051215D01*
X187874926Y-67292901D01*
X187780621Y-67520573D01*
X187643716Y-67725465D01*
X187469465Y-67899716D01*
X187264573Y-68036621D01*
X187036901Y-68130926D01*
X186795215Y-68179000D01*
X186548785Y-68179000D01*
X186307099Y-68130926D01*
X186079427Y-68036621D01*
X185874535Y-67899716D01*
X185700284Y-67725465D01*
X185563379Y-67520573D01*
X185469074Y-67292901D01*
X185421000Y-67051215D01*
X185421000Y-66804785D01*
X185469074Y-66563099D01*
X185562195Y-66338285D01*
X185563378Y-66335429D01*
X185652948Y-66201379D01*
X185700284Y-66130535D01*
X185874535Y-65956284D01*
X186079427Y-65819379D01*
X186307099Y-65725074D01*
X186548785Y-65677000D01*
X186795215Y-65677000D01*
X187036901Y-65725074D01*
G37*
G36*
X187036901Y-60645074D02*
G01*
X187264573Y-60739379D01*
X187469465Y-60876284D01*
X187643716Y-61050535D01*
X187780621Y-61255427D01*
X187874926Y-61483099D01*
X187923000Y-61724785D01*
X187923000Y-61971215D01*
X187874926Y-62212901D01*
X187780621Y-62440573D01*
X187643716Y-62645465D01*
X187469465Y-62819716D01*
X187264573Y-62956621D01*
X187036901Y-63050926D01*
X186795215Y-63099000D01*
X186548785Y-63099000D01*
X186307099Y-63050926D01*
X186079427Y-62956621D01*
X185874535Y-62819716D01*
X185700284Y-62645465D01*
X185563379Y-62440573D01*
X185469074Y-62212901D01*
X185421000Y-61971215D01*
X185421000Y-61724785D01*
X185469074Y-61483099D01*
X185563379Y-61255427D01*
X185700284Y-61050535D01*
X185874535Y-60876284D01*
X186079427Y-60739379D01*
X186307099Y-60645074D01*
X186548785Y-60597000D01*
X186795215Y-60597000D01*
X187036901Y-60645074D01*
G37*
G36*
X114664901Y-58487074D02*
G01*
X114892573Y-58581379D01*
X115097465Y-58718284D01*
X115271716Y-58892535D01*
X115408621Y-59097427D01*
X115502926Y-59325099D01*
X115551000Y-59566785D01*
X115551000Y-59813215D01*
X115502926Y-60054901D01*
X115408621Y-60282573D01*
X115271716Y-60487465D01*
X115097465Y-60661716D01*
X114892573Y-60798621D01*
X114664901Y-60892926D01*
X114423215Y-60941000D01*
X114176785Y-60941000D01*
X113935099Y-60892926D01*
X113707427Y-60798621D01*
X113502535Y-60661716D01*
X113328284Y-60487465D01*
X113191379Y-60282573D01*
X113097074Y-60054901D01*
X113049000Y-59813215D01*
X113049000Y-59566785D01*
X113097074Y-59325099D01*
X113191379Y-59097427D01*
X113328284Y-58892535D01*
X113502535Y-58718284D01*
X113707427Y-58581379D01*
X113935099Y-58487074D01*
X114176785Y-58439000D01*
X114423215Y-58439000D01*
X114664901Y-58487074D01*
G37*
G36*
X129723000Y-60239000D02*
G01*
X126621000Y-60239000D01*
X126621000Y-57137000D01*
X129723000Y-57137000D01*
X129723000Y-60239000D01*
G37*
G36*
X187036901Y-55565074D02*
G01*
X187264573Y-55659379D01*
X187469465Y-55796284D01*
X187643716Y-55970535D01*
X187780621Y-56175427D01*
X187874926Y-56403099D01*
X187923000Y-56644785D01*
X187923000Y-56891215D01*
X187874926Y-57132901D01*
X187780621Y-57360573D01*
X187643716Y-57565465D01*
X187469465Y-57739716D01*
X187264573Y-57876621D01*
X187036901Y-57970926D01*
X186795215Y-58019000D01*
X186548785Y-58019000D01*
X186307099Y-57970926D01*
X186079427Y-57876621D01*
X185874535Y-57739716D01*
X185700284Y-57565465D01*
X185563379Y-57360573D01*
X185469074Y-57132901D01*
X185421000Y-56891215D01*
X185421000Y-56644785D01*
X185469074Y-56403099D01*
X185563379Y-56175427D01*
X185700284Y-55970535D01*
X185874535Y-55796284D01*
X186079427Y-55659379D01*
X186307099Y-55565074D01*
X186548785Y-55517000D01*
X186795215Y-55517000D01*
X187036901Y-55565074D01*
G37*
G36*
X166974585Y-54416802D02*
G01*
X167124410Y-54446604D01*
X167406674Y-54563521D01*
X167660705Y-54733259D01*
X167876741Y-54949295D01*
X168046479Y-55203326D01*
X168163396Y-55485590D01*
X168223000Y-55785240D01*
X168223000Y-56090760D01*
X168163396Y-56390410D01*
X168046479Y-56672674D01*
X167876741Y-56926705D01*
X167660705Y-57142741D01*
X167406674Y-57312479D01*
X167124410Y-57429396D01*
X166974585Y-57459198D01*
X166824762Y-57489000D01*
X166519238Y-57489000D01*
X166369415Y-57459198D01*
X166219590Y-57429396D01*
X165937326Y-57312479D01*
X165683295Y-57142741D01*
X165467259Y-56926705D01*
X165297521Y-56672674D01*
X165180604Y-56390410D01*
X165121000Y-56090760D01*
X165121000Y-55785240D01*
X165180604Y-55485590D01*
X165297521Y-55203326D01*
X165467259Y-54949295D01*
X165683295Y-54733259D01*
X165937326Y-54563521D01*
X166219590Y-54446604D01*
X166369415Y-54416802D01*
X166519238Y-54387000D01*
X166824762Y-54387000D01*
X166974585Y-54416802D01*
G37*
G36*
X122353254Y-50610031D02*
G01*
X122525615Y-50662315D01*
X122684471Y-50747226D01*
X122823707Y-50861493D01*
X122937975Y-51000729D01*
X123022885Y-51159584D01*
X123075169Y-51331945D01*
X123088400Y-51466278D01*
X123088400Y-53181722D01*
X123075169Y-53316055D01*
X123022885Y-53488416D01*
X122937975Y-53647271D01*
X122823707Y-53786507D01*
X122684471Y-53900775D01*
X122525616Y-53985685D01*
X122353255Y-54037969D01*
X122174000Y-54055625D01*
X121994746Y-54037969D01*
X121822385Y-53985685D01*
X121663530Y-53900775D01*
X121524294Y-53786507D01*
X121410026Y-53647271D01*
X121325116Y-53488416D01*
X121272832Y-53316055D01*
X121259601Y-53181722D01*
X121259600Y-51466279D01*
X121272831Y-51331946D01*
X121325115Y-51159585D01*
X121410026Y-51000729D01*
X121524293Y-50861493D01*
X121663529Y-50747225D01*
X121822384Y-50662315D01*
X121994745Y-50610031D01*
X122174000Y-50592375D01*
X122353254Y-50610031D01*
G37*
G36*
X117273254Y-50610031D02*
G01*
X117445615Y-50662315D01*
X117604471Y-50747226D01*
X117743707Y-50861493D01*
X117857975Y-51000729D01*
X117942885Y-51159584D01*
X117995169Y-51331945D01*
X118008400Y-51466278D01*
X118008400Y-53181722D01*
X117995169Y-53316055D01*
X117942885Y-53488416D01*
X117857975Y-53647271D01*
X117743707Y-53786507D01*
X117604471Y-53900775D01*
X117445616Y-53985685D01*
X117273255Y-54037969D01*
X117094000Y-54055625D01*
X116914746Y-54037969D01*
X116742385Y-53985685D01*
X116583530Y-53900775D01*
X116444294Y-53786507D01*
X116330026Y-53647271D01*
X116245116Y-53488416D01*
X116192832Y-53316055D01*
X116179601Y-53181722D01*
X116179600Y-51466279D01*
X116192831Y-51331946D01*
X116245115Y-51159585D01*
X116330026Y-51000729D01*
X116444293Y-50861493D01*
X116583529Y-50747225D01*
X116742384Y-50662315D01*
X116914745Y-50610031D01*
X117094000Y-50592375D01*
X117273254Y-50610031D01*
G37*
G36*
X187923000Y-52939000D02*
G01*
X185421000Y-52939000D01*
X185421000Y-50437000D01*
X187923000Y-50437000D01*
X187923000Y-52939000D01*
G37*
G36*
X166974585Y-46416802D02*
G01*
X167124410Y-46446604D01*
X167406674Y-46563521D01*
X167660705Y-46733259D01*
X167876741Y-46949295D01*
X168046479Y-47203326D01*
X168163396Y-47485590D01*
X168223000Y-47785240D01*
X168223000Y-48090760D01*
X168163396Y-48390410D01*
X168046479Y-48672674D01*
X167876741Y-48926705D01*
X167660705Y-49142741D01*
X167406674Y-49312479D01*
X167124410Y-49429396D01*
X166974585Y-49459198D01*
X166824762Y-49489000D01*
X166519238Y-49489000D01*
X166369415Y-49459198D01*
X166219590Y-49429396D01*
X165937326Y-49312479D01*
X165683295Y-49142741D01*
X165467259Y-48926705D01*
X165297521Y-48672674D01*
X165180604Y-48390410D01*
X165121000Y-48090760D01*
X165121000Y-47785240D01*
X165180604Y-47485590D01*
X165297521Y-47203326D01*
X165467259Y-46949295D01*
X165683295Y-46733259D01*
X165937326Y-46563521D01*
X166219590Y-46446604D01*
X166369415Y-46416802D01*
X166519238Y-46387000D01*
X166824762Y-46387000D01*
X166974585Y-46416802D01*
G37*
G36*
X128474585Y-46416802D02*
G01*
X128624410Y-46446604D01*
X128906674Y-46563521D01*
X129160705Y-46733259D01*
X129376741Y-46949295D01*
X129546479Y-47203326D01*
X129663396Y-47485590D01*
X129723000Y-47785240D01*
X129723000Y-48090760D01*
X129663396Y-48390410D01*
X129546479Y-48672674D01*
X129376741Y-48926705D01*
X129160705Y-49142741D01*
X128906674Y-49312479D01*
X128624410Y-49429396D01*
X128474585Y-49459198D01*
X128324762Y-49489000D01*
X128019238Y-49489000D01*
X127869415Y-49459198D01*
X127719590Y-49429396D01*
X127437326Y-49312479D01*
X127183295Y-49142741D01*
X126967259Y-48926705D01*
X126797521Y-48672674D01*
X126680604Y-48390410D01*
X126621000Y-48090760D01*
X126621000Y-47785240D01*
X126680604Y-47485590D01*
X126797521Y-47203326D01*
X126967259Y-46949295D01*
X127183295Y-46733259D01*
X127437326Y-46563521D01*
X127719590Y-46446604D01*
X127869415Y-46416802D01*
X128019238Y-46387000D01*
X128324762Y-46387000D01*
X128474585Y-46416802D01*
G37*
M02*
