M48
; DRILL file {KiCad (5.1.5)-3} date 10/06/2020 11:46:41
; FORMAT={-:-/ absolute / inch / decimal}
; #@! TF.CreationDate,2020-06-10T11:46:41+02:00
; #@! TF.GenerationSoftware,Kicad,Pcbnew,(5.1.5)-3
FMAT,2
INCH
T1C0.0157
T2C0.0315
T3C0.0394
T4C0.0400
T5C0.0591
T6C0.0630
T7C0.0787
%
G90
G05
T1
X4.498Y-5.1476
X4.7Y-3.85
X4.7835Y-5.1891
X4.7923Y-5.2657
X4.8917Y-5.2657
X4.9705Y-3.4252
X4.9902Y-5.2854
X5.0689Y-5.3346
X5.1096Y-5.3753
X5.1225Y-5.4867
X5.1378Y-5.1605
X5.1378Y-5.2657
X5.1673Y-3.3465
X5.2062Y-5.4926
X5.2165Y-3.8878
X5.2466Y-5.4523
X5.302Y-2.5
X5.3266Y-2.9872
X5.4134Y-5.2165
X5.4139Y-5.2958
X5.4739Y-5.502
X5.502Y-5.2165
X5.5025Y-5.4631
X5.5512Y-5.7087
X5.646Y-4.6814
X5.6496Y-4.813
X5.6594Y-2.9823
X5.6776Y-5.1756
X5.7185Y-2.8248
X5.7185Y-4.4783
X5.7283Y-2.2638
X5.7283Y-2.3327
X5.7283Y-4.6848
X5.7283Y-4.7933
X5.7677Y-5.2657
X5.7874Y-3.4449
X5.8366Y-3.9567
X5.8474Y-3.8189
X5.8607Y-4.4729
X5.876Y-3.002
X5.9222Y-3.7894
X5.935Y-3.3858
X5.935Y-4.4443
X5.9497Y-3.8649
X5.9547Y-3.5925
X5.9646Y-4.1339
X5.9712Y-3.9971
X5.9833Y-3.5647
X5.9843Y-3.4449
X5.992Y-4.3524
X6.012Y-3.9979
X6.0213Y-3.5748
X6.0236Y-4.1339
X6.0243Y-3.7164
X6.0625Y-4.0064
X6.0827Y-3.75
X6.1024Y-4.0059
X6.1029Y-3.7964
X6.122Y-2.0665
X6.122Y-2.1358
X6.1285Y-3.1561
X6.1614Y-2.8839
X6.1614Y-3.8535
X6.1909Y-3.7008
X6.2008Y-3.8535
X6.2195Y-3.4744
X6.22Y-4.3337
X6.2262Y-3.9774
X6.2303Y-2.4114
X6.2303Y-3.7106
X6.241Y-2.9044
X6.2697Y-3.8535
X6.2894Y-2.2146
X6.3091Y-2.9134
X6.3091Y-3.002
X6.3194Y-4.3105
X6.3386Y-3.9503
X6.3661Y-3.4055
X6.3671Y-3.7392
X6.3681Y-2.7264
X6.3746Y-2.3031
X6.378Y-2.2244
X6.4021Y-3.1594
X6.407Y-3.3371
X6.4075Y-3.0807
X6.4159Y-3.7711
X6.437Y-3.7096
X6.4469Y-3.2874
X6.4506Y-2.914
X6.4567Y-5.2165
X6.4821Y-3.39
X6.4956Y-3.8489
X6.4961Y-4.5472
X6.5059Y-3.7598
X6.5157Y-2.8437
X6.5239Y-3.6283
X6.5256Y-3.2972
X6.5659Y-4.252
X6.5748Y-3.5998
X6.5846Y-3.3366
X6.5945Y-4.065
X6.5945Y-5.0886
X6.6043Y-4.5472
X6.6053Y-3.422
X6.6235Y-4.1727
X6.6344Y-3.0517
X6.6437Y-3.7293
X6.6437Y-3.7894
X6.6437Y-4.9606
X6.6639Y-4.2131
X6.6732Y-3.4547
X6.6831Y-2.8445
X6.6929Y-3.2864
X6.6985Y-4.9662
X6.7028Y-5.0591
X6.7028Y-5.1181
X6.7126Y-2.7953
X6.7215Y-3.2175
X6.7252Y-3.309
X6.7465Y-4.2618
X6.778Y-2.9528
X6.7913Y-2.1063
X6.7913Y-2.2539
X6.8012Y-4.5276
X6.8012Y-4.685
X6.8012Y-4.813
X6.8036Y-4.2618
X6.8204Y-5.03
X6.8209Y-3.8878
X6.8209Y-3.9685
X6.8582Y-3.7293
X6.8602Y-3.9685
X6.8629Y-3.9115
X6.8745Y-3.4099
X6.8918Y-3.5628
X6.8996Y-3.3071
X6.8996Y-5.0689
X6.9193Y-4.2618
X6.9488Y-2.126
X6.9587Y-5.0689
X6.9685Y-2.313
X6.9995Y-3.2972
X7.0021Y-2.1955
X7.0172Y-4.0852
X7.0177Y-3.7992
X7.0374Y-5.0394
X7.0725Y-4.9072
X7.0727Y-4.813
X7.0866Y-3.6614
X7.1358Y-4.9508
X7.1449Y-2.204
X7.1457Y-4.813
X7.1654Y-3.5215
X7.1654Y-3.5785
X7.1752Y-4.9902
X7.1835Y-2.154
X7.2047Y-3.002
X7.2047Y-3.0736
X7.2539Y-2.1555
X7.2638Y-5.0052
X7.2638Y-5.0725
X7.2736Y-2.0374
X7.3524Y-3.1102
T2
X5.0689Y-3.7992
X5.1555Y-4.0945
X4.815Y-3.4252
X4.9016Y-3.7205
X4.8051Y-4.1535
X4.8917Y-4.4488
T3
X4.8902Y-5.3543
X4.8902Y-5.4543
X4.8902Y-5.5543
X4.8902Y-5.6543
X4.9902Y-5.3543
X4.9902Y-5.4543
X4.9902Y-5.5543
X4.9902Y-5.6543
X5.3134Y-5.3543
X5.3134Y-5.4543
X5.3134Y-5.5543
X5.3134Y-5.6543
X5.4134Y-5.3543
X5.4134Y-5.4543
X5.4134Y-5.5543
X5.4134Y-5.6543
X7.0887Y-5.6767
X7.1887Y-5.6767
X7.2887Y-5.6767
X7.3887Y-5.6767
T4
X4.61Y-2.06
X4.81Y-2.06
T5
X5.0461Y-1.8873
X5.0461Y-2.3106
X6.5619Y-1.8873
X6.5619Y-2.2023
T6
X4.5Y-2.35
X4.5Y-2.65
X4.5Y-2.95
X4.5Y-3.25
X4.5Y-3.55
X4.5Y-3.85
X4.5Y-4.15
X4.5Y-4.45
X4.5Y-4.75
X4.5Y-5.05
X7.3493Y-2.035
X7.3493Y-2.235
X7.3493Y-2.435
X7.3493Y-2.635
X7.3493Y-2.835
X7.3493Y-3.035
X7.3493Y-3.235
X7.3493Y-3.435
X7.3493Y-3.635
X7.3493Y-3.835
X7.3493Y-4.035
X7.3493Y-4.235
X7.3493Y-4.435
X7.3493Y-4.635
X7.3493Y-4.835
X7.3493Y-5.035
X7.3493Y-5.235
X7.3493Y-5.435
T7
X5.72Y-3.88
X5.72Y-4.2737
T0
M30
