G04 #@! TF.GenerationSoftware,KiCad,Pcbnew,(5.1.5)-3*
G04 #@! TF.CreationDate,2020-06-10T11:45:35+02:00*
G04 #@! TF.ProjectId,atmevse,61746d65-7673-4652-9e6b-696361645f70,rev?*
G04 #@! TF.SameCoordinates,Original*
G04 #@! TF.FileFunction,Legend,Bot*
G04 #@! TF.FilePolarity,Positive*
%FSLAX46Y46*%
G04 Gerber Fmt 4.6, Leading zero omitted, Abs format (unit mm)*
G04 Created by KiCad (PCBNEW (5.1.5)-3) date 2020-06-10 11:45:35*
%MOMM*%
%LPD*%
G04 APERTURE LIST*
%ADD10C,0.300000*%
%ADD11C,0.127000*%
%ADD12C,0.120000*%
%ADD13C,0.150000*%
%ADD14C,0.152400*%
%ADD15C,0.200000*%
%ADD16C,0.015000*%
%ADD17C,0.120650*%
G04 APERTURE END LIST*
D10*
X143619047Y-124433333D02*
X142666666Y-124433333D01*
X143809523Y-125004761D02*
X143142857Y-123004761D01*
X142476190Y-125004761D01*
X142095238Y-123004761D02*
X140952380Y-123004761D01*
X141523809Y-125004761D02*
X141523809Y-123004761D01*
X140285714Y-125004761D02*
X140285714Y-123671428D01*
X140285714Y-123861904D02*
X140190476Y-123766666D01*
X140000000Y-123671428D01*
X139714285Y-123671428D01*
X139523809Y-123766666D01*
X139428571Y-123957142D01*
X139428571Y-125004761D01*
X139428571Y-123957142D02*
X139333333Y-123766666D01*
X139142857Y-123671428D01*
X138857142Y-123671428D01*
X138666666Y-123766666D01*
X138571428Y-123957142D01*
X138571428Y-125004761D01*
X136857142Y-124909523D02*
X137047619Y-125004761D01*
X137428571Y-125004761D01*
X137619047Y-124909523D01*
X137714285Y-124719047D01*
X137714285Y-123957142D01*
X137619047Y-123766666D01*
X137428571Y-123671428D01*
X137047619Y-123671428D01*
X136857142Y-123766666D01*
X136761904Y-123957142D01*
X136761904Y-124147619D01*
X137714285Y-124338095D01*
X136095238Y-123671428D02*
X135619047Y-125004761D01*
X135142857Y-123671428D01*
X134476190Y-124909523D02*
X134285714Y-125004761D01*
X133904761Y-125004761D01*
X133714285Y-124909523D01*
X133619047Y-124719047D01*
X133619047Y-124623809D01*
X133714285Y-124433333D01*
X133904761Y-124338095D01*
X134190476Y-124338095D01*
X134380952Y-124242857D01*
X134476190Y-124052380D01*
X134476190Y-123957142D01*
X134380952Y-123766666D01*
X134190476Y-123671428D01*
X133904761Y-123671428D01*
X133714285Y-123766666D01*
X132000000Y-124909523D02*
X132190476Y-125004761D01*
X132571428Y-125004761D01*
X132761904Y-124909523D01*
X132857142Y-124719047D01*
X132857142Y-123957142D01*
X132761904Y-123766666D01*
X132571428Y-123671428D01*
X132190476Y-123671428D01*
X132000000Y-123766666D01*
X131904761Y-123957142D01*
X131904761Y-124147619D01*
X132857142Y-124338095D01*
X128380952Y-125004761D02*
X129047619Y-124052380D01*
X129523809Y-125004761D02*
X129523809Y-123004761D01*
X128761904Y-123004761D01*
X128571428Y-123100000D01*
X128476190Y-123195238D01*
X128380952Y-123385714D01*
X128380952Y-123671428D01*
X128476190Y-123861904D01*
X128571428Y-123957142D01*
X128761904Y-124052380D01*
X129523809Y-124052380D01*
X126761904Y-124909523D02*
X126952380Y-125004761D01*
X127333333Y-125004761D01*
X127523809Y-124909523D01*
X127619047Y-124719047D01*
X127619047Y-123957142D01*
X127523809Y-123766666D01*
X127333333Y-123671428D01*
X126952380Y-123671428D01*
X126761904Y-123766666D01*
X126666666Y-123957142D01*
X126666666Y-124147619D01*
X127619047Y-124338095D01*
X126000000Y-123671428D02*
X125523809Y-125004761D01*
X125047619Y-123671428D01*
X123238095Y-125004761D02*
X124380952Y-125004761D01*
X123809523Y-125004761D02*
X123809523Y-123004761D01*
X124000000Y-123290476D01*
X124190476Y-123480952D01*
X124380952Y-123576190D01*
X122380952Y-124814285D02*
X122285714Y-124909523D01*
X122380952Y-125004761D01*
X122476190Y-124909523D01*
X122380952Y-124814285D01*
X122380952Y-125004761D01*
X121047619Y-123004761D02*
X120857142Y-123004761D01*
X120666666Y-123100000D01*
X120571428Y-123195238D01*
X120476190Y-123385714D01*
X120380952Y-123766666D01*
X120380952Y-124242857D01*
X120476190Y-124623809D01*
X120571428Y-124814285D01*
X120666666Y-124909523D01*
X120857142Y-125004761D01*
X121047619Y-125004761D01*
X121238095Y-124909523D01*
X121333333Y-124814285D01*
X121428571Y-124623809D01*
X121523809Y-124242857D01*
X121523809Y-123766666D01*
X121428571Y-123385714D01*
X121333333Y-123195238D01*
X121238095Y-123100000D01*
X121047619Y-123004761D01*
X137904761Y-126304761D02*
X137714285Y-126304761D01*
X137523809Y-126400000D01*
X137428571Y-126495238D01*
X137333333Y-126685714D01*
X137238095Y-127066666D01*
X137238095Y-127542857D01*
X137333333Y-127923809D01*
X137428571Y-128114285D01*
X137523809Y-128209523D01*
X137714285Y-128304761D01*
X137904761Y-128304761D01*
X138095238Y-128209523D01*
X138190476Y-128114285D01*
X138285714Y-127923809D01*
X138380952Y-127542857D01*
X138380952Y-127066666D01*
X138285714Y-126685714D01*
X138190476Y-126495238D01*
X138095238Y-126400000D01*
X137904761Y-126304761D01*
X135523809Y-126304761D02*
X135904761Y-126304761D01*
X136095238Y-126400000D01*
X136190476Y-126495238D01*
X136380952Y-126780952D01*
X136476190Y-127161904D01*
X136476190Y-127923809D01*
X136380952Y-128114285D01*
X136285714Y-128209523D01*
X136095238Y-128304761D01*
X135714285Y-128304761D01*
X135523809Y-128209523D01*
X135428571Y-128114285D01*
X135333333Y-127923809D01*
X135333333Y-127447619D01*
X135428571Y-127257142D01*
X135523809Y-127161904D01*
X135714285Y-127066666D01*
X136095238Y-127066666D01*
X136285714Y-127161904D01*
X136380952Y-127257142D01*
X136476190Y-127447619D01*
X133047619Y-126209523D02*
X134761904Y-128780952D01*
X132476190Y-126495238D02*
X132380952Y-126400000D01*
X132190476Y-126304761D01*
X131714285Y-126304761D01*
X131523809Y-126400000D01*
X131428571Y-126495238D01*
X131333333Y-126685714D01*
X131333333Y-126876190D01*
X131428571Y-127161904D01*
X132571428Y-128304761D01*
X131333333Y-128304761D01*
X130095238Y-126304761D02*
X129904761Y-126304761D01*
X129714285Y-126400000D01*
X129619047Y-126495238D01*
X129523809Y-126685714D01*
X129428571Y-127066666D01*
X129428571Y-127542857D01*
X129523809Y-127923809D01*
X129619047Y-128114285D01*
X129714285Y-128209523D01*
X129904761Y-128304761D01*
X130095238Y-128304761D01*
X130285714Y-128209523D01*
X130380952Y-128114285D01*
X130476190Y-127923809D01*
X130571428Y-127542857D01*
X130571428Y-127066666D01*
X130476190Y-126685714D01*
X130380952Y-126495238D01*
X130285714Y-126400000D01*
X130095238Y-126304761D01*
X128666666Y-126495238D02*
X128571428Y-126400000D01*
X128380952Y-126304761D01*
X127904761Y-126304761D01*
X127714285Y-126400000D01*
X127619047Y-126495238D01*
X127523809Y-126685714D01*
X127523809Y-126876190D01*
X127619047Y-127161904D01*
X128761904Y-128304761D01*
X127523809Y-128304761D01*
X126285714Y-126304761D02*
X126095238Y-126304761D01*
X125904761Y-126400000D01*
X125809523Y-126495238D01*
X125714285Y-126685714D01*
X125619047Y-127066666D01*
X125619047Y-127542857D01*
X125714285Y-127923809D01*
X125809523Y-128114285D01*
X125904761Y-128209523D01*
X126095238Y-128304761D01*
X126285714Y-128304761D01*
X126476190Y-128209523D01*
X126571428Y-128114285D01*
X126666666Y-127923809D01*
X126761904Y-127542857D01*
X126761904Y-127066666D01*
X126666666Y-126685714D01*
X126571428Y-126495238D01*
X126476190Y-126400000D01*
X126285714Y-126304761D01*
D11*
X106400000Y-55880000D02*
X106400000Y-132080000D01*
X119000000Y-132080000D02*
X119000000Y-55880000D01*
X119000000Y-55880000D02*
X106400000Y-55880000D01*
X106400000Y-132080000D02*
X119000000Y-132080000D01*
D12*
X156408000Y-103552000D02*
G75*
G03X156408000Y-103552000I-11120000J0D01*
G01*
X134207000Y-103552000D02*
X156369000Y-103552000D01*
X134208000Y-103592000D02*
X156368000Y-103592000D01*
X134208000Y-103632000D02*
X156368000Y-103632000D01*
X134208000Y-103672000D02*
X156368000Y-103672000D01*
X134209000Y-103712000D02*
X156367000Y-103712000D01*
X134209000Y-103752000D02*
X156367000Y-103752000D01*
X134210000Y-103792000D02*
X156366000Y-103792000D01*
X134211000Y-103832000D02*
X156365000Y-103832000D01*
X134212000Y-103872000D02*
X156364000Y-103872000D01*
X134213000Y-103912000D02*
X156363000Y-103912000D01*
X134215000Y-103952000D02*
X156361000Y-103952000D01*
X134216000Y-103992000D02*
X156360000Y-103992000D01*
X134218000Y-104032000D02*
X156358000Y-104032000D01*
X134220000Y-104072000D02*
X156356000Y-104072000D01*
X134222000Y-104112000D02*
X156354000Y-104112000D01*
X134224000Y-104152000D02*
X156352000Y-104152000D01*
X134226000Y-104192000D02*
X156350000Y-104192000D01*
X134228000Y-104232000D02*
X156348000Y-104232000D01*
X134231000Y-104273000D02*
X156345000Y-104273000D01*
X134234000Y-104313000D02*
X156342000Y-104313000D01*
X134236000Y-104353000D02*
X156340000Y-104353000D01*
X134239000Y-104393000D02*
X156337000Y-104393000D01*
X134242000Y-104433000D02*
X156334000Y-104433000D01*
X134246000Y-104473000D02*
X156330000Y-104473000D01*
X134249000Y-104513000D02*
X156327000Y-104513000D01*
X134253000Y-104553000D02*
X156323000Y-104553000D01*
X134256000Y-104593000D02*
X156320000Y-104593000D01*
X134260000Y-104633000D02*
X156316000Y-104633000D01*
X134264000Y-104673000D02*
X156312000Y-104673000D01*
X134268000Y-104713000D02*
X156308000Y-104713000D01*
X134272000Y-104753000D02*
X156304000Y-104753000D01*
X134277000Y-104793000D02*
X156299000Y-104793000D01*
X134281000Y-104833000D02*
X156295000Y-104833000D01*
X134286000Y-104873000D02*
X156290000Y-104873000D01*
X134291000Y-104913000D02*
X156285000Y-104913000D01*
X134296000Y-104953000D02*
X156280000Y-104953000D01*
X134301000Y-104993000D02*
X156275000Y-104993000D01*
X134306000Y-105033000D02*
X156270000Y-105033000D01*
X134312000Y-105073000D02*
X156264000Y-105073000D01*
X134317000Y-105113000D02*
X156259000Y-105113000D01*
X134323000Y-105153000D02*
X156253000Y-105153000D01*
X134329000Y-105193000D02*
X156247000Y-105193000D01*
X134335000Y-105233000D02*
X156241000Y-105233000D01*
X134341000Y-105273000D02*
X156235000Y-105273000D01*
X134348000Y-105313000D02*
X156228000Y-105313000D01*
X134354000Y-105353000D02*
X156222000Y-105353000D01*
X134361000Y-105393000D02*
X156215000Y-105393000D01*
X134368000Y-105433000D02*
X156208000Y-105433000D01*
X134375000Y-105473000D02*
X156201000Y-105473000D01*
X134382000Y-105513000D02*
X156194000Y-105513000D01*
X134389000Y-105553000D02*
X156187000Y-105553000D01*
X134396000Y-105593000D02*
X156180000Y-105593000D01*
X134404000Y-105633000D02*
X156172000Y-105633000D01*
X134411000Y-105673000D02*
X156165000Y-105673000D01*
X134419000Y-105713000D02*
X156157000Y-105713000D01*
X134427000Y-105753000D02*
X156149000Y-105753000D01*
X134435000Y-105793000D02*
X156141000Y-105793000D01*
X134444000Y-105833000D02*
X156132000Y-105833000D01*
X134452000Y-105873000D02*
X156124000Y-105873000D01*
X134461000Y-105913000D02*
X156115000Y-105913000D01*
X134470000Y-105953000D02*
X156106000Y-105953000D01*
X134479000Y-105993000D02*
X156097000Y-105993000D01*
X134488000Y-106033000D02*
X156088000Y-106033000D01*
X134497000Y-106073000D02*
X156079000Y-106073000D01*
X134506000Y-106113000D02*
X156070000Y-106113000D01*
X134516000Y-106153000D02*
X156060000Y-106153000D01*
X134525000Y-106193000D02*
X156051000Y-106193000D01*
X134535000Y-106233000D02*
X156041000Y-106233000D01*
X134545000Y-106273000D02*
X156031000Y-106273000D01*
X134555000Y-106313000D02*
X143048000Y-106313000D01*
X147528000Y-106313000D02*
X156021000Y-106313000D01*
X134566000Y-106353000D02*
X143048000Y-106353000D01*
X147528000Y-106353000D02*
X156010000Y-106353000D01*
X134576000Y-106393000D02*
X143048000Y-106393000D01*
X147528000Y-106393000D02*
X156000000Y-106393000D01*
X134587000Y-106433000D02*
X143048000Y-106433000D01*
X147528000Y-106433000D02*
X155989000Y-106433000D01*
X134598000Y-106473000D02*
X143048000Y-106473000D01*
X147528000Y-106473000D02*
X155978000Y-106473000D01*
X134609000Y-106513000D02*
X143048000Y-106513000D01*
X147528000Y-106513000D02*
X155967000Y-106513000D01*
X134620000Y-106553000D02*
X143048000Y-106553000D01*
X147528000Y-106553000D02*
X155956000Y-106553000D01*
X134631000Y-106593000D02*
X143048000Y-106593000D01*
X147528000Y-106593000D02*
X155945000Y-106593000D01*
X134643000Y-106633000D02*
X143048000Y-106633000D01*
X147528000Y-106633000D02*
X155933000Y-106633000D01*
X134654000Y-106673000D02*
X143048000Y-106673000D01*
X147528000Y-106673000D02*
X155922000Y-106673000D01*
X134666000Y-106713000D02*
X143048000Y-106713000D01*
X147528000Y-106713000D02*
X155910000Y-106713000D01*
X134678000Y-106753000D02*
X143048000Y-106753000D01*
X147528000Y-106753000D02*
X155898000Y-106753000D01*
X134690000Y-106793000D02*
X143048000Y-106793000D01*
X147528000Y-106793000D02*
X155886000Y-106793000D01*
X134702000Y-106833000D02*
X143048000Y-106833000D01*
X147528000Y-106833000D02*
X155874000Y-106833000D01*
X134715000Y-106873000D02*
X143048000Y-106873000D01*
X147528000Y-106873000D02*
X155861000Y-106873000D01*
X134727000Y-106913000D02*
X143048000Y-106913000D01*
X147528000Y-106913000D02*
X155849000Y-106913000D01*
X134740000Y-106953000D02*
X143048000Y-106953000D01*
X147528000Y-106953000D02*
X155836000Y-106953000D01*
X134753000Y-106993000D02*
X143048000Y-106993000D01*
X147528000Y-106993000D02*
X155823000Y-106993000D01*
X134766000Y-107033000D02*
X143048000Y-107033000D01*
X147528000Y-107033000D02*
X155810000Y-107033000D01*
X134779000Y-107073000D02*
X143048000Y-107073000D01*
X147528000Y-107073000D02*
X155797000Y-107073000D01*
X134793000Y-107113000D02*
X143048000Y-107113000D01*
X147528000Y-107113000D02*
X155783000Y-107113000D01*
X134806000Y-107153000D02*
X143048000Y-107153000D01*
X147528000Y-107153000D02*
X155770000Y-107153000D01*
X134820000Y-107193000D02*
X143048000Y-107193000D01*
X147528000Y-107193000D02*
X155756000Y-107193000D01*
X134834000Y-107233000D02*
X143048000Y-107233000D01*
X147528000Y-107233000D02*
X155742000Y-107233000D01*
X134848000Y-107273000D02*
X143048000Y-107273000D01*
X147528000Y-107273000D02*
X155728000Y-107273000D01*
X134862000Y-107313000D02*
X143048000Y-107313000D01*
X147528000Y-107313000D02*
X155714000Y-107313000D01*
X134877000Y-107353000D02*
X143048000Y-107353000D01*
X147528000Y-107353000D02*
X155699000Y-107353000D01*
X134892000Y-107393000D02*
X143048000Y-107393000D01*
X147528000Y-107393000D02*
X155684000Y-107393000D01*
X134906000Y-107433000D02*
X143048000Y-107433000D01*
X147528000Y-107433000D02*
X155670000Y-107433000D01*
X134921000Y-107473000D02*
X143048000Y-107473000D01*
X147528000Y-107473000D02*
X155655000Y-107473000D01*
X134937000Y-107513000D02*
X143048000Y-107513000D01*
X147528000Y-107513000D02*
X155639000Y-107513000D01*
X134952000Y-107553000D02*
X143048000Y-107553000D01*
X147528000Y-107553000D02*
X155624000Y-107553000D01*
X134967000Y-107593000D02*
X143048000Y-107593000D01*
X147528000Y-107593000D02*
X155609000Y-107593000D01*
X134983000Y-107633000D02*
X143048000Y-107633000D01*
X147528000Y-107633000D02*
X155593000Y-107633000D01*
X134999000Y-107673000D02*
X143048000Y-107673000D01*
X147528000Y-107673000D02*
X155577000Y-107673000D01*
X135015000Y-107713000D02*
X143048000Y-107713000D01*
X147528000Y-107713000D02*
X155561000Y-107713000D01*
X135031000Y-107753000D02*
X143048000Y-107753000D01*
X147528000Y-107753000D02*
X155545000Y-107753000D01*
X135048000Y-107793000D02*
X143048000Y-107793000D01*
X147528000Y-107793000D02*
X155528000Y-107793000D01*
X135064000Y-107833000D02*
X143048000Y-107833000D01*
X147528000Y-107833000D02*
X155512000Y-107833000D01*
X135081000Y-107873000D02*
X143048000Y-107873000D01*
X147528000Y-107873000D02*
X155495000Y-107873000D01*
X135098000Y-107913000D02*
X143048000Y-107913000D01*
X147528000Y-107913000D02*
X155478000Y-107913000D01*
X135115000Y-107953000D02*
X143048000Y-107953000D01*
X147528000Y-107953000D02*
X155461000Y-107953000D01*
X135132000Y-107993000D02*
X143048000Y-107993000D01*
X147528000Y-107993000D02*
X155444000Y-107993000D01*
X135150000Y-108033000D02*
X143048000Y-108033000D01*
X147528000Y-108033000D02*
X155426000Y-108033000D01*
X135168000Y-108073000D02*
X143048000Y-108073000D01*
X147528000Y-108073000D02*
X155408000Y-108073000D01*
X135185000Y-108113000D02*
X143048000Y-108113000D01*
X147528000Y-108113000D02*
X155391000Y-108113000D01*
X135204000Y-108153000D02*
X143048000Y-108153000D01*
X147528000Y-108153000D02*
X155372000Y-108153000D01*
X135222000Y-108193000D02*
X143048000Y-108193000D01*
X147528000Y-108193000D02*
X155354000Y-108193000D01*
X135240000Y-108233000D02*
X143048000Y-108233000D01*
X147528000Y-108233000D02*
X155336000Y-108233000D01*
X135259000Y-108273000D02*
X143048000Y-108273000D01*
X147528000Y-108273000D02*
X155317000Y-108273000D01*
X135278000Y-108313000D02*
X143048000Y-108313000D01*
X147528000Y-108313000D02*
X155298000Y-108313000D01*
X135297000Y-108353000D02*
X143048000Y-108353000D01*
X147528000Y-108353000D02*
X155279000Y-108353000D01*
X135316000Y-108393000D02*
X143048000Y-108393000D01*
X147528000Y-108393000D02*
X155260000Y-108393000D01*
X135336000Y-108433000D02*
X143048000Y-108433000D01*
X147528000Y-108433000D02*
X155240000Y-108433000D01*
X135355000Y-108473000D02*
X143048000Y-108473000D01*
X147528000Y-108473000D02*
X155221000Y-108473000D01*
X135375000Y-108513000D02*
X143048000Y-108513000D01*
X147528000Y-108513000D02*
X155201000Y-108513000D01*
X135395000Y-108553000D02*
X143048000Y-108553000D01*
X147528000Y-108553000D02*
X155181000Y-108553000D01*
X135415000Y-108593000D02*
X143048000Y-108593000D01*
X147528000Y-108593000D02*
X155161000Y-108593000D01*
X135436000Y-108633000D02*
X143048000Y-108633000D01*
X147528000Y-108633000D02*
X155140000Y-108633000D01*
X135456000Y-108673000D02*
X143048000Y-108673000D01*
X147528000Y-108673000D02*
X155120000Y-108673000D01*
X135477000Y-108713000D02*
X143048000Y-108713000D01*
X147528000Y-108713000D02*
X155099000Y-108713000D01*
X135498000Y-108753000D02*
X143048000Y-108753000D01*
X147528000Y-108753000D02*
X155078000Y-108753000D01*
X135520000Y-108793000D02*
X143048000Y-108793000D01*
X147528000Y-108793000D02*
X155056000Y-108793000D01*
X135541000Y-108833000D02*
X143048000Y-108833000D01*
X147528000Y-108833000D02*
X155035000Y-108833000D01*
X135563000Y-108873000D02*
X143048000Y-108873000D01*
X147528000Y-108873000D02*
X155013000Y-108873000D01*
X135585000Y-108913000D02*
X143048000Y-108913000D01*
X147528000Y-108913000D02*
X154991000Y-108913000D01*
X135607000Y-108953000D02*
X143048000Y-108953000D01*
X147528000Y-108953000D02*
X154969000Y-108953000D01*
X135629000Y-108993000D02*
X143048000Y-108993000D01*
X147528000Y-108993000D02*
X154947000Y-108993000D01*
X135652000Y-109033000D02*
X143048000Y-109033000D01*
X147528000Y-109033000D02*
X154924000Y-109033000D01*
X135674000Y-109073000D02*
X143048000Y-109073000D01*
X147528000Y-109073000D02*
X154902000Y-109073000D01*
X135697000Y-109113000D02*
X143048000Y-109113000D01*
X147528000Y-109113000D02*
X154879000Y-109113000D01*
X135721000Y-109153000D02*
X143048000Y-109153000D01*
X147528000Y-109153000D02*
X154855000Y-109153000D01*
X135744000Y-109193000D02*
X143048000Y-109193000D01*
X147528000Y-109193000D02*
X154832000Y-109193000D01*
X135768000Y-109233000D02*
X143048000Y-109233000D01*
X147528000Y-109233000D02*
X154808000Y-109233000D01*
X135791000Y-109273000D02*
X143048000Y-109273000D01*
X147528000Y-109273000D02*
X154785000Y-109273000D01*
X135816000Y-109313000D02*
X143048000Y-109313000D01*
X147528000Y-109313000D02*
X154760000Y-109313000D01*
X135840000Y-109353000D02*
X143048000Y-109353000D01*
X147528000Y-109353000D02*
X154736000Y-109353000D01*
X135864000Y-109393000D02*
X143048000Y-109393000D01*
X147528000Y-109393000D02*
X154712000Y-109393000D01*
X135889000Y-109433000D02*
X143048000Y-109433000D01*
X147528000Y-109433000D02*
X154687000Y-109433000D01*
X135914000Y-109473000D02*
X143048000Y-109473000D01*
X147528000Y-109473000D02*
X154662000Y-109473000D01*
X135940000Y-109513000D02*
X143048000Y-109513000D01*
X147528000Y-109513000D02*
X154636000Y-109513000D01*
X135965000Y-109553000D02*
X143048000Y-109553000D01*
X147528000Y-109553000D02*
X154611000Y-109553000D01*
X135991000Y-109593000D02*
X143048000Y-109593000D01*
X147528000Y-109593000D02*
X154585000Y-109593000D01*
X136017000Y-109633000D02*
X143048000Y-109633000D01*
X147528000Y-109633000D02*
X154559000Y-109633000D01*
X136043000Y-109673000D02*
X143048000Y-109673000D01*
X147528000Y-109673000D02*
X154533000Y-109673000D01*
X136070000Y-109713000D02*
X143048000Y-109713000D01*
X147528000Y-109713000D02*
X154506000Y-109713000D01*
X136096000Y-109753000D02*
X143048000Y-109753000D01*
X147528000Y-109753000D02*
X154480000Y-109753000D01*
X136123000Y-109793000D02*
X143048000Y-109793000D01*
X147528000Y-109793000D02*
X154453000Y-109793000D01*
X136151000Y-109833000D02*
X143048000Y-109833000D01*
X147528000Y-109833000D02*
X154425000Y-109833000D01*
X136178000Y-109873000D02*
X143048000Y-109873000D01*
X147528000Y-109873000D02*
X154398000Y-109873000D01*
X136206000Y-109913000D02*
X143048000Y-109913000D01*
X147528000Y-109913000D02*
X154370000Y-109913000D01*
X136234000Y-109953000D02*
X143048000Y-109953000D01*
X147528000Y-109953000D02*
X154342000Y-109953000D01*
X136262000Y-109993000D02*
X143048000Y-109993000D01*
X147528000Y-109993000D02*
X154314000Y-109993000D01*
X136291000Y-110033000D02*
X143048000Y-110033000D01*
X147528000Y-110033000D02*
X154285000Y-110033000D01*
X136320000Y-110073000D02*
X143048000Y-110073000D01*
X147528000Y-110073000D02*
X154256000Y-110073000D01*
X136349000Y-110113000D02*
X143048000Y-110113000D01*
X147528000Y-110113000D02*
X154227000Y-110113000D01*
X136378000Y-110153000D02*
X143048000Y-110153000D01*
X147528000Y-110153000D02*
X154198000Y-110153000D01*
X136408000Y-110193000D02*
X143048000Y-110193000D01*
X147528000Y-110193000D02*
X154168000Y-110193000D01*
X136438000Y-110233000D02*
X143048000Y-110233000D01*
X147528000Y-110233000D02*
X154138000Y-110233000D01*
X136468000Y-110273000D02*
X143048000Y-110273000D01*
X147528000Y-110273000D02*
X154108000Y-110273000D01*
X136498000Y-110313000D02*
X143048000Y-110313000D01*
X147528000Y-110313000D02*
X154078000Y-110313000D01*
X136529000Y-110353000D02*
X143048000Y-110353000D01*
X147528000Y-110353000D02*
X154047000Y-110353000D01*
X136560000Y-110393000D02*
X143048000Y-110393000D01*
X147528000Y-110393000D02*
X154016000Y-110393000D01*
X136591000Y-110433000D02*
X143048000Y-110433000D01*
X147528000Y-110433000D02*
X153985000Y-110433000D01*
X136623000Y-110473000D02*
X143048000Y-110473000D01*
X147528000Y-110473000D02*
X153953000Y-110473000D01*
X136655000Y-110513000D02*
X143048000Y-110513000D01*
X147528000Y-110513000D02*
X153921000Y-110513000D01*
X136687000Y-110553000D02*
X143048000Y-110553000D01*
X147528000Y-110553000D02*
X153889000Y-110553000D01*
X136720000Y-110593000D02*
X143048000Y-110593000D01*
X147528000Y-110593000D02*
X153856000Y-110593000D01*
X136753000Y-110633000D02*
X143048000Y-110633000D01*
X147528000Y-110633000D02*
X153823000Y-110633000D01*
X136786000Y-110673000D02*
X143048000Y-110673000D01*
X147528000Y-110673000D02*
X153790000Y-110673000D01*
X136819000Y-110713000D02*
X143048000Y-110713000D01*
X147528000Y-110713000D02*
X153757000Y-110713000D01*
X136853000Y-110753000D02*
X143048000Y-110753000D01*
X147528000Y-110753000D02*
X153723000Y-110753000D01*
X136887000Y-110793000D02*
X153689000Y-110793000D01*
X136922000Y-110833000D02*
X153654000Y-110833000D01*
X136957000Y-110873000D02*
X153619000Y-110873000D01*
X136992000Y-110913000D02*
X153584000Y-110913000D01*
X137027000Y-110953000D02*
X153549000Y-110953000D01*
X137063000Y-110993000D02*
X153513000Y-110993000D01*
X137099000Y-111033000D02*
X153477000Y-111033000D01*
X137136000Y-111073000D02*
X153440000Y-111073000D01*
X137173000Y-111113000D02*
X153403000Y-111113000D01*
X137210000Y-111153000D02*
X153366000Y-111153000D01*
X137248000Y-111193000D02*
X153328000Y-111193000D01*
X137286000Y-111233000D02*
X153290000Y-111233000D01*
X137324000Y-111273000D02*
X153252000Y-111273000D01*
X137363000Y-111313000D02*
X153213000Y-111313000D01*
X137402000Y-111353000D02*
X153174000Y-111353000D01*
X137442000Y-111393000D02*
X153134000Y-111393000D01*
X137481000Y-111433000D02*
X153095000Y-111433000D01*
X137522000Y-111473000D02*
X153054000Y-111473000D01*
X137563000Y-111513000D02*
X153013000Y-111513000D01*
X137604000Y-111553000D02*
X152972000Y-111553000D01*
X137646000Y-111593000D02*
X152930000Y-111593000D01*
X137688000Y-111633000D02*
X152888000Y-111633000D01*
X137730000Y-111673000D02*
X152846000Y-111673000D01*
X137773000Y-111713000D02*
X152803000Y-111713000D01*
X137817000Y-111752000D02*
X152759000Y-111752000D01*
X137860000Y-111792000D02*
X152716000Y-111792000D01*
X137905000Y-111832000D02*
X152671000Y-111832000D01*
X137950000Y-111872000D02*
X152626000Y-111872000D01*
X137995000Y-111912000D02*
X152581000Y-111912000D01*
X138041000Y-111952000D02*
X152535000Y-111952000D01*
X138087000Y-111992000D02*
X152489000Y-111992000D01*
X138134000Y-112032000D02*
X152442000Y-112032000D01*
X138182000Y-112072000D02*
X152394000Y-112072000D01*
X138230000Y-112112000D02*
X152346000Y-112112000D01*
X138278000Y-112152000D02*
X152298000Y-112152000D01*
X138327000Y-112192000D02*
X152249000Y-112192000D01*
X138377000Y-112232000D02*
X152199000Y-112232000D01*
X138427000Y-112272000D02*
X152149000Y-112272000D01*
X138478000Y-112312000D02*
X152098000Y-112312000D01*
X138529000Y-112352000D02*
X152047000Y-112352000D01*
X138581000Y-112392000D02*
X151995000Y-112392000D01*
X138634000Y-112432000D02*
X151942000Y-112432000D01*
X138688000Y-112472000D02*
X151888000Y-112472000D01*
X138742000Y-112512000D02*
X151834000Y-112512000D01*
X138796000Y-112552000D02*
X151780000Y-112552000D01*
X138852000Y-112592000D02*
X151724000Y-112592000D01*
X138908000Y-112632000D02*
X151668000Y-112632000D01*
X138965000Y-112672000D02*
X151611000Y-112672000D01*
X139023000Y-112712000D02*
X151553000Y-112712000D01*
X139081000Y-112752000D02*
X151495000Y-112752000D01*
X139141000Y-112792000D02*
X151435000Y-112792000D01*
X139201000Y-112832000D02*
X151375000Y-112832000D01*
X139262000Y-112872000D02*
X151314000Y-112872000D01*
X139324000Y-112912000D02*
X151252000Y-112912000D01*
X139387000Y-112952000D02*
X151189000Y-112952000D01*
X139450000Y-112992000D02*
X151126000Y-112992000D01*
X139515000Y-113032000D02*
X151061000Y-113032000D01*
X139581000Y-113072000D02*
X150995000Y-113072000D01*
X139648000Y-113112000D02*
X150928000Y-113112000D01*
X139716000Y-113152000D02*
X150860000Y-113152000D01*
X139785000Y-113192000D02*
X150791000Y-113192000D01*
X139855000Y-113232000D02*
X150721000Y-113232000D01*
X139926000Y-113272000D02*
X150650000Y-113272000D01*
X139999000Y-113312000D02*
X150577000Y-113312000D01*
X140073000Y-113352000D02*
X150503000Y-113352000D01*
X140148000Y-113392000D02*
X150428000Y-113392000D01*
X140225000Y-113432000D02*
X150351000Y-113432000D01*
X140303000Y-113472000D02*
X150273000Y-113472000D01*
X140383000Y-113512000D02*
X150193000Y-113512000D01*
X140464000Y-113552000D02*
X150112000Y-113552000D01*
X140547000Y-113592000D02*
X150029000Y-113592000D01*
X140632000Y-113632000D02*
X149944000Y-113632000D01*
X140719000Y-113672000D02*
X149857000Y-113672000D01*
X140808000Y-113712000D02*
X149768000Y-113712000D01*
X140899000Y-113752000D02*
X149677000Y-113752000D01*
X140992000Y-113792000D02*
X149584000Y-113792000D01*
X141088000Y-113832000D02*
X149488000Y-113832000D01*
X141186000Y-113872000D02*
X149390000Y-113872000D01*
X141287000Y-113912000D02*
X149289000Y-113912000D01*
X141391000Y-113952000D02*
X149185000Y-113952000D01*
X141499000Y-113992000D02*
X149077000Y-113992000D01*
X141609000Y-114032000D02*
X148967000Y-114032000D01*
X141724000Y-114072000D02*
X148852000Y-114072000D01*
X141843000Y-114112000D02*
X148733000Y-114112000D01*
X141967000Y-114152000D02*
X148609000Y-114152000D01*
X142096000Y-114192000D02*
X148480000Y-114192000D01*
X142230000Y-114232000D02*
X148346000Y-114232000D01*
X142372000Y-114272000D02*
X148204000Y-114272000D01*
X142521000Y-114312000D02*
X148055000Y-114312000D01*
X142679000Y-114352000D02*
X147897000Y-114352000D01*
X142848000Y-114392000D02*
X147728000Y-114392000D01*
X143030000Y-114432000D02*
X147546000Y-114432000D01*
X143228000Y-114472000D02*
X147348000Y-114472000D01*
X143448000Y-114512000D02*
X147128000Y-114512000D01*
X143698000Y-114552000D02*
X146878000Y-114552000D01*
X143996000Y-114592000D02*
X146580000Y-114592000D01*
X144385000Y-114632000D02*
X146191000Y-114632000D01*
X145248000Y-114672000D02*
X145328000Y-114672000D01*
X139053000Y-91652663D02*
X139053000Y-93852663D01*
X137953000Y-92752663D02*
X140153000Y-92752663D01*
D13*
X120900000Y-98500000D02*
X120900000Y-83000000D01*
X125900000Y-98500000D02*
X125900000Y-83000000D01*
X125900000Y-83000000D02*
X120900000Y-83000000D01*
X125900000Y-98500000D02*
X120900000Y-98500000D01*
D14*
X115316000Y-50927000D02*
G75*
G02X115951000Y-50292000I635000J0D01*
G01*
X115316000Y-53721000D02*
G75*
G03X115951000Y-54356000I635000J0D01*
G01*
X123317000Y-54356000D02*
G75*
G03X123952000Y-53721000I0J635000D01*
G01*
X123317000Y-50292000D02*
G75*
G02X123952000Y-50927000I0J-635000D01*
G01*
X115951000Y-50292000D02*
X123317000Y-50292000D01*
X123952000Y-50927000D02*
X123952000Y-53721000D01*
X123317000Y-54356000D02*
X115951000Y-54356000D01*
X115316000Y-53721000D02*
X115316000Y-50927000D01*
D15*
X182712000Y-51688000D02*
G75*
G03X182712000Y-51688000I-100000J0D01*
G01*
D11*
X191772000Y-140588000D02*
X191772000Y-49148000D01*
X181572000Y-49148000D02*
X181572000Y-140588000D01*
X181572000Y-140588000D02*
X191772000Y-140588000D01*
X191772000Y-49148000D02*
X181572000Y-49148000D01*
D10*
X181572000Y-49148000D02*
X176512000Y-49148000D01*
X176512000Y-49148000D02*
X176512000Y-140588000D01*
X176512000Y-140588000D02*
X181572000Y-140588000D01*
D15*
X176512000Y-69468000D02*
X181592000Y-69468000D01*
X176512000Y-79628000D02*
X181592000Y-79628000D01*
X176512000Y-84708000D02*
X181592000Y-84708000D01*
X176512000Y-99948000D02*
X181592000Y-99948000D01*
X176512000Y-110108000D02*
X181592000Y-110108000D01*
X176512000Y-120268000D02*
X181592000Y-120268000D01*
X176512000Y-130428000D02*
X181592000Y-130428000D01*
D12*
X176512000Y-49148000D02*
X173972000Y-49148000D01*
D10*
X173972000Y-49148000D02*
X173972000Y-140588000D01*
X173972000Y-140588000D02*
X176512000Y-140588000D01*
D15*
X173972000Y-110108000D02*
X176512000Y-110108000D01*
X173972000Y-99948000D02*
X176512000Y-99948000D01*
X173972000Y-84708000D02*
X176512000Y-84708000D01*
X173972000Y-69468000D02*
X176512000Y-69468000D01*
D12*
X178722000Y-145518000D02*
X178722000Y-142858000D01*
X186402000Y-145518000D02*
X178722000Y-145518000D01*
X186402000Y-142858000D02*
X178722000Y-142858000D01*
X186402000Y-145518000D02*
X186402000Y-142858000D01*
X187672000Y-145518000D02*
X189002000Y-145518000D01*
X189002000Y-145518000D02*
X189002000Y-144188000D01*
X128080000Y-134670000D02*
X126750000Y-134670000D01*
X128080000Y-136000000D02*
X128080000Y-134670000D01*
X125480000Y-134670000D02*
X122880000Y-134670000D01*
X125480000Y-137270000D02*
X125480000Y-134670000D01*
X128080000Y-137270000D02*
X125480000Y-137270000D01*
X122880000Y-134670000D02*
X122880000Y-144950000D01*
X128080000Y-137270000D02*
X128080000Y-144950000D01*
X128080000Y-144950000D02*
X122880000Y-144950000D01*
X138830000Y-144950000D02*
X133630000Y-144950000D01*
X138830000Y-137270000D02*
X138830000Y-144950000D01*
X133630000Y-134670000D02*
X133630000Y-144950000D01*
X138830000Y-137270000D02*
X136230000Y-137270000D01*
X136230000Y-137270000D02*
X136230000Y-134670000D01*
X136230000Y-134670000D02*
X133630000Y-134670000D01*
X138830000Y-136000000D02*
X138830000Y-134670000D01*
X138830000Y-134670000D02*
X137500000Y-134670000D01*
D13*
X132350000Y-92500000D02*
X132350000Y-108000000D01*
X127350000Y-92500000D02*
X127350000Y-108000000D01*
X127350000Y-108000000D02*
X132350000Y-108000000D01*
X127350000Y-92500000D02*
X132350000Y-92500000D01*
X125650000Y-117000000D02*
X120650000Y-117000000D01*
X125650000Y-101500000D02*
X120650000Y-101500000D01*
X125650000Y-117000000D02*
X125650000Y-101500000D01*
X120650000Y-117000000D02*
X120650000Y-101500000D01*
D12*
X124172000Y-59688000D02*
X124172000Y-57688000D01*
X170372000Y-69988000D02*
X170372000Y-44388000D01*
X124472000Y-69988000D02*
X170372000Y-69988000D01*
X124472000Y-44388000D02*
X170372000Y-44388000D01*
X124472000Y-69988000D02*
X124472000Y-44388000D01*
D16*
X114766666Y-135123333D02*
X114766666Y-136123333D01*
X114833333Y-136323333D01*
X114966666Y-136456666D01*
X115166666Y-136523333D01*
X115300000Y-136523333D01*
X113366666Y-136523333D02*
X114166666Y-136523333D01*
X113766666Y-136523333D02*
X113766666Y-135123333D01*
X113900000Y-135323333D01*
X114033333Y-135456666D01*
X114166666Y-135523333D01*
D13*
X135392857Y-111107142D02*
X135440476Y-111154761D01*
X135583333Y-111202380D01*
X135678571Y-111202380D01*
X135821428Y-111154761D01*
X135916666Y-111059523D01*
X135964285Y-110964285D01*
X136011904Y-110773809D01*
X136011904Y-110630952D01*
X135964285Y-110440476D01*
X135916666Y-110345238D01*
X135821428Y-110250000D01*
X135678571Y-110202380D01*
X135583333Y-110202380D01*
X135440476Y-110250000D01*
X135392857Y-110297619D01*
X134440476Y-111202380D02*
X135011904Y-111202380D01*
X134726190Y-111202380D02*
X134726190Y-110202380D01*
X134821428Y-110345238D01*
X134916666Y-110440476D01*
X135011904Y-110488095D01*
X134059523Y-110297619D02*
X134011904Y-110250000D01*
X133916666Y-110202380D01*
X133678571Y-110202380D01*
X133583333Y-110250000D01*
X133535714Y-110297619D01*
X133488095Y-110392857D01*
X133488095Y-110488095D01*
X133535714Y-110630952D01*
X134107142Y-111202380D01*
X133488095Y-111202380D01*
X120352380Y-90154761D02*
X119876190Y-89821428D01*
X120352380Y-89583333D02*
X119352380Y-89583333D01*
X119352380Y-89964285D01*
X119400000Y-90059523D01*
X119447619Y-90107142D01*
X119542857Y-90154761D01*
X119685714Y-90154761D01*
X119780952Y-90107142D01*
X119828571Y-90059523D01*
X119876190Y-89964285D01*
X119876190Y-89583333D01*
X119352380Y-90440476D02*
X120352380Y-90773809D01*
X119352380Y-91107142D01*
X120352380Y-91964285D02*
X120352380Y-91392857D01*
X120352380Y-91678571D02*
X119352380Y-91678571D01*
X119495238Y-91583333D01*
X119590476Y-91488095D01*
X119638095Y-91392857D01*
D17*
X116913148Y-55412571D02*
X117315315Y-55412571D01*
X117315315Y-56044547D02*
X117315315Y-54838047D01*
X116740791Y-54838047D01*
X116338625Y-54952952D02*
X116281172Y-54895500D01*
X116166267Y-54838047D01*
X115879006Y-54838047D01*
X115764101Y-54895500D01*
X115706648Y-54952952D01*
X115649196Y-55067857D01*
X115649196Y-55182761D01*
X115706648Y-55355119D01*
X116396077Y-56044547D01*
X115649196Y-56044547D01*
D16*
X187138666Y-45841333D02*
X187138666Y-46841333D01*
X187205333Y-47041333D01*
X187338666Y-47174666D01*
X187538666Y-47241333D01*
X187672000Y-47241333D01*
X186538666Y-45974666D02*
X186472000Y-45908000D01*
X186338666Y-45841333D01*
X186005333Y-45841333D01*
X185872000Y-45908000D01*
X185805333Y-45974666D01*
X185738666Y-46108000D01*
X185738666Y-46241333D01*
X185805333Y-46441333D01*
X186605333Y-47241333D01*
X185738666Y-47241333D01*
D15*
X179302000Y-51330857D02*
X179302000Y-52045142D01*
X179730571Y-51188000D02*
X178230571Y-51688000D01*
X179730571Y-52188000D01*
X178944857Y-56875142D02*
X179016285Y-57089428D01*
X179087714Y-57160857D01*
X179230571Y-57232285D01*
X179444857Y-57232285D01*
X179587714Y-57160857D01*
X179659142Y-57089428D01*
X179730571Y-56946571D01*
X179730571Y-56375142D01*
X178230571Y-56375142D01*
X178230571Y-56875142D01*
X178302000Y-57018000D01*
X178373428Y-57089428D01*
X178516285Y-57160857D01*
X178659142Y-57160857D01*
X178802000Y-57089428D01*
X178873428Y-57018000D01*
X178944857Y-56875142D01*
X178944857Y-56375142D01*
X179730571Y-60919428D02*
X179730571Y-60062285D01*
X179730571Y-60490857D02*
X178230571Y-60490857D01*
X178444857Y-60348000D01*
X178587714Y-60205142D01*
X178659142Y-60062285D01*
X178373428Y-61490857D02*
X178302000Y-61562285D01*
X178230571Y-61705142D01*
X178230571Y-62062285D01*
X178302000Y-62205142D01*
X178373428Y-62276571D01*
X178516285Y-62348000D01*
X178659142Y-62348000D01*
X178873428Y-62276571D01*
X179730571Y-61419428D01*
X179730571Y-62348000D01*
X178230571Y-62776571D02*
X179730571Y-63276571D01*
X178230571Y-63776571D01*
X178302000Y-65785142D02*
X178230571Y-65642285D01*
X178230571Y-65428000D01*
X178302000Y-65213714D01*
X178444857Y-65070857D01*
X178587714Y-64999428D01*
X178873428Y-64928000D01*
X179087714Y-64928000D01*
X179373428Y-64999428D01*
X179516285Y-65070857D01*
X179659142Y-65213714D01*
X179730571Y-65428000D01*
X179730571Y-65570857D01*
X179659142Y-65785142D01*
X179587714Y-65856571D01*
X179087714Y-65856571D01*
X179087714Y-65570857D01*
X179730571Y-66499428D02*
X178230571Y-66499428D01*
X179730571Y-67356571D01*
X178230571Y-67356571D01*
X179730571Y-68070857D02*
X178230571Y-68070857D01*
X178230571Y-68428000D01*
X178302000Y-68642285D01*
X178444857Y-68785142D01*
X178587714Y-68856571D01*
X178873428Y-68928000D01*
X179087714Y-68928000D01*
X179373428Y-68856571D01*
X179516285Y-68785142D01*
X179659142Y-68642285D01*
X179730571Y-68428000D01*
X179730571Y-68070857D01*
X179730571Y-71043714D02*
X179730571Y-70329428D01*
X178230571Y-70329428D01*
X178944857Y-71543714D02*
X178944857Y-72043714D01*
X179730571Y-72258000D02*
X179730571Y-71543714D01*
X178230571Y-71543714D01*
X178230571Y-72258000D01*
X179730571Y-72900857D02*
X178230571Y-72900857D01*
X178230571Y-73258000D01*
X178302000Y-73472285D01*
X178444857Y-73615142D01*
X178587714Y-73686571D01*
X178873428Y-73758000D01*
X179087714Y-73758000D01*
X179373428Y-73686571D01*
X179516285Y-73615142D01*
X179659142Y-73472285D01*
X179730571Y-73258000D01*
X179730571Y-72900857D01*
X178944857Y-75838000D02*
X179016285Y-76052285D01*
X179087714Y-76123714D01*
X179230571Y-76195142D01*
X179444857Y-76195142D01*
X179587714Y-76123714D01*
X179659142Y-76052285D01*
X179730571Y-75909428D01*
X179730571Y-75338000D01*
X178230571Y-75338000D01*
X178230571Y-75838000D01*
X178302000Y-75980857D01*
X178373428Y-76052285D01*
X178516285Y-76123714D01*
X178659142Y-76123714D01*
X178802000Y-76052285D01*
X178873428Y-75980857D01*
X178944857Y-75838000D01*
X178944857Y-75338000D01*
X178230571Y-76623714D02*
X178230571Y-77480857D01*
X179730571Y-77052285D02*
X178230571Y-77052285D01*
X179730571Y-77980857D02*
X178230571Y-77980857D01*
X179730571Y-78838000D01*
X178230571Y-78838000D01*
X179730571Y-80989428D02*
X178230571Y-80989428D01*
X179730571Y-81846571D01*
X178230571Y-81846571D01*
X179587714Y-83418000D02*
X179659142Y-83346571D01*
X179730571Y-83132285D01*
X179730571Y-82989428D01*
X179659142Y-82775142D01*
X179516285Y-82632285D01*
X179373428Y-82560857D01*
X179087714Y-82489428D01*
X178873428Y-82489428D01*
X178587714Y-82560857D01*
X178444857Y-82632285D01*
X178302000Y-82775142D01*
X178230571Y-82989428D01*
X178230571Y-83132285D01*
X178302000Y-83346571D01*
X178373428Y-83418000D01*
X178944857Y-87355142D02*
X179016285Y-87569428D01*
X179087714Y-87640857D01*
X179230571Y-87712285D01*
X179444857Y-87712285D01*
X179587714Y-87640857D01*
X179659142Y-87569428D01*
X179730571Y-87426571D01*
X179730571Y-86855142D01*
X178230571Y-86855142D01*
X178230571Y-87355142D01*
X178302000Y-87498000D01*
X178373428Y-87569428D01*
X178516285Y-87640857D01*
X178659142Y-87640857D01*
X178802000Y-87569428D01*
X178873428Y-87498000D01*
X178944857Y-87355142D01*
X178944857Y-86855142D01*
X179730571Y-92792285D02*
X179016285Y-92292285D01*
X179730571Y-91935142D02*
X178230571Y-91935142D01*
X178230571Y-92506571D01*
X178302000Y-92649428D01*
X178373428Y-92720857D01*
X178516285Y-92792285D01*
X178730571Y-92792285D01*
X178873428Y-92720857D01*
X178944857Y-92649428D01*
X179016285Y-92506571D01*
X179016285Y-91935142D01*
X178230571Y-96765142D02*
X179730571Y-97122285D01*
X178659142Y-97408000D01*
X179730571Y-97693714D01*
X178230571Y-98050857D01*
X179587714Y-102202285D02*
X179659142Y-102130857D01*
X179730571Y-101916571D01*
X179730571Y-101773714D01*
X179659142Y-101559428D01*
X179516285Y-101416571D01*
X179373428Y-101345142D01*
X179087714Y-101273714D01*
X178873428Y-101273714D01*
X178587714Y-101345142D01*
X178444857Y-101416571D01*
X178302000Y-101559428D01*
X178230571Y-101773714D01*
X178230571Y-101916571D01*
X178302000Y-102130857D01*
X178373428Y-102202285D01*
X179730571Y-102845142D02*
X178230571Y-102845142D01*
X178230571Y-103416571D01*
X178302000Y-103559428D01*
X178373428Y-103630857D01*
X178516285Y-103702285D01*
X178730571Y-103702285D01*
X178873428Y-103630857D01*
X178944857Y-103559428D01*
X179016285Y-103416571D01*
X179016285Y-102845142D01*
X179730571Y-106425142D02*
X178230571Y-106425142D01*
X178230571Y-106996571D01*
X178302000Y-107139428D01*
X178373428Y-107210857D01*
X178516285Y-107282285D01*
X178730571Y-107282285D01*
X178873428Y-107210857D01*
X178944857Y-107139428D01*
X179016285Y-106996571D01*
X179016285Y-106425142D01*
X179730571Y-107925142D02*
X178230571Y-107925142D01*
X178230571Y-108496571D01*
X178302000Y-108639428D01*
X178373428Y-108710857D01*
X178516285Y-108782285D01*
X178730571Y-108782285D01*
X178873428Y-108710857D01*
X178944857Y-108639428D01*
X179016285Y-108496571D01*
X179016285Y-107925142D01*
X179730571Y-112398000D02*
X179730571Y-111683714D01*
X178230571Y-111683714D01*
X178230571Y-113183714D02*
X178230571Y-113326571D01*
X178302000Y-113469428D01*
X178373428Y-113540857D01*
X178516285Y-113612285D01*
X178802000Y-113683714D01*
X179159142Y-113683714D01*
X179444857Y-113612285D01*
X179587714Y-113540857D01*
X179659142Y-113469428D01*
X179730571Y-113326571D01*
X179730571Y-113183714D01*
X179659142Y-113040857D01*
X179587714Y-112969428D01*
X179444857Y-112898000D01*
X179159142Y-112826571D01*
X178802000Y-112826571D01*
X178516285Y-112898000D01*
X178373428Y-112969428D01*
X178302000Y-113040857D01*
X178230571Y-113183714D01*
X179730571Y-116620857D02*
X178230571Y-116620857D01*
X179730571Y-117478000D02*
X178873428Y-116835142D01*
X178230571Y-117478000D02*
X179087714Y-116620857D01*
X178230571Y-118406571D02*
X178230571Y-118549428D01*
X178302000Y-118692285D01*
X178373428Y-118763714D01*
X178516285Y-118835142D01*
X178802000Y-118906571D01*
X179159142Y-118906571D01*
X179444857Y-118835142D01*
X179587714Y-118763714D01*
X179659142Y-118692285D01*
X179730571Y-118549428D01*
X179730571Y-118406571D01*
X179659142Y-118263714D01*
X179587714Y-118192285D01*
X179444857Y-118120857D01*
X179159142Y-118049428D01*
X178802000Y-118049428D01*
X178516285Y-118120857D01*
X178373428Y-118192285D01*
X178302000Y-118263714D01*
X178230571Y-118406571D01*
X179730571Y-122558000D02*
X179730571Y-121843714D01*
X178230571Y-121843714D01*
X179730571Y-123843714D02*
X179730571Y-122986571D01*
X179730571Y-123415142D02*
X178230571Y-123415142D01*
X178444857Y-123272285D01*
X178587714Y-123129428D01*
X178659142Y-122986571D01*
X179730571Y-126780857D02*
X178230571Y-126780857D01*
X179730571Y-127638000D02*
X178873428Y-126995142D01*
X178230571Y-127638000D02*
X179087714Y-126780857D01*
X179730571Y-129066571D02*
X179730571Y-128209428D01*
X179730571Y-128638000D02*
X178230571Y-128638000D01*
X178444857Y-128495142D01*
X178587714Y-128352285D01*
X178659142Y-128209428D01*
X179730571Y-132718000D02*
X179730571Y-132003714D01*
X178230571Y-132003714D01*
X178373428Y-133146571D02*
X178302000Y-133218000D01*
X178230571Y-133360857D01*
X178230571Y-133718000D01*
X178302000Y-133860857D01*
X178373428Y-133932285D01*
X178516285Y-134003714D01*
X178659142Y-134003714D01*
X178873428Y-133932285D01*
X179730571Y-133075142D01*
X179730571Y-134003714D01*
X179730571Y-136940857D02*
X178230571Y-136940857D01*
X179730571Y-137798000D02*
X178873428Y-137155142D01*
X178230571Y-137798000D02*
X179087714Y-136940857D01*
X178373428Y-138369428D02*
X178302000Y-138440857D01*
X178230571Y-138583714D01*
X178230571Y-138940857D01*
X178302000Y-139083714D01*
X178373428Y-139155142D01*
X178516285Y-139226571D01*
X178659142Y-139226571D01*
X178873428Y-139155142D01*
X179730571Y-138298000D01*
X179730571Y-139226571D01*
D13*
X175694380Y-57712761D02*
X175218190Y-57379428D01*
X175694380Y-57141333D02*
X174694380Y-57141333D01*
X174694380Y-57522285D01*
X174742000Y-57617523D01*
X174789619Y-57665142D01*
X174884857Y-57712761D01*
X175027714Y-57712761D01*
X175122952Y-57665142D01*
X175170571Y-57617523D01*
X175218190Y-57522285D01*
X175218190Y-57141333D01*
X175646761Y-58093714D02*
X175694380Y-58236571D01*
X175694380Y-58474666D01*
X175646761Y-58569904D01*
X175599142Y-58617523D01*
X175503904Y-58665142D01*
X175408666Y-58665142D01*
X175313428Y-58617523D01*
X175265809Y-58569904D01*
X175218190Y-58474666D01*
X175170571Y-58284190D01*
X175122952Y-58188952D01*
X175075333Y-58141333D01*
X174980095Y-58093714D01*
X174884857Y-58093714D01*
X174789619Y-58141333D01*
X174742000Y-58188952D01*
X174694380Y-58284190D01*
X174694380Y-58522285D01*
X174742000Y-58665142D01*
X175027714Y-59522285D02*
X175694380Y-59522285D01*
X174646761Y-59284190D02*
X175361047Y-59046095D01*
X175361047Y-59665142D01*
X175122952Y-60188952D02*
X175075333Y-60093714D01*
X175027714Y-60046095D01*
X174932476Y-59998476D01*
X174884857Y-59998476D01*
X174789619Y-60046095D01*
X174742000Y-60093714D01*
X174694380Y-60188952D01*
X174694380Y-60379428D01*
X174742000Y-60474666D01*
X174789619Y-60522285D01*
X174884857Y-60569904D01*
X174932476Y-60569904D01*
X175027714Y-60522285D01*
X175075333Y-60474666D01*
X175122952Y-60379428D01*
X175122952Y-60188952D01*
X175170571Y-60093714D01*
X175218190Y-60046095D01*
X175313428Y-59998476D01*
X175503904Y-59998476D01*
X175599142Y-60046095D01*
X175646761Y-60093714D01*
X175694380Y-60188952D01*
X175694380Y-60379428D01*
X175646761Y-60474666D01*
X175599142Y-60522285D01*
X175503904Y-60569904D01*
X175313428Y-60569904D01*
X175218190Y-60522285D01*
X175170571Y-60474666D01*
X175122952Y-60379428D01*
X174694380Y-61474666D02*
X174694380Y-60998476D01*
X175170571Y-60950857D01*
X175122952Y-60998476D01*
X175075333Y-61093714D01*
X175075333Y-61331809D01*
X175122952Y-61427047D01*
X175170571Y-61474666D01*
X175265809Y-61522285D01*
X175503904Y-61522285D01*
X175599142Y-61474666D01*
X175646761Y-61427047D01*
X175694380Y-61331809D01*
X175694380Y-61093714D01*
X175646761Y-60998476D01*
X175599142Y-60950857D01*
X175694380Y-91351809D02*
X175694380Y-90875619D01*
X174694380Y-90875619D01*
X175694380Y-91828000D02*
X175646761Y-91732761D01*
X175599142Y-91685142D01*
X175503904Y-91637523D01*
X175218190Y-91637523D01*
X175122952Y-91685142D01*
X175075333Y-91732761D01*
X175027714Y-91828000D01*
X175027714Y-91970857D01*
X175075333Y-92066095D01*
X175122952Y-92113714D01*
X175218190Y-92161333D01*
X175503904Y-92161333D01*
X175599142Y-92113714D01*
X175646761Y-92066095D01*
X175694380Y-91970857D01*
X175694380Y-91828000D01*
X175646761Y-93018476D02*
X175694380Y-92923238D01*
X175694380Y-92732761D01*
X175646761Y-92637523D01*
X175599142Y-92589904D01*
X175503904Y-92542285D01*
X175218190Y-92542285D01*
X175122952Y-92589904D01*
X175075333Y-92637523D01*
X175027714Y-92732761D01*
X175027714Y-92923238D01*
X175075333Y-93018476D01*
X175694380Y-93447047D02*
X174694380Y-93447047D01*
X175313428Y-93542285D02*
X175694380Y-93828000D01*
X175027714Y-93828000D02*
X175408666Y-93447047D01*
X175694380Y-103528000D02*
X174694380Y-103528000D01*
X174694380Y-103908952D01*
X174742000Y-104004190D01*
X174789619Y-104051809D01*
X174884857Y-104099428D01*
X175027714Y-104099428D01*
X175122952Y-104051809D01*
X175170571Y-104004190D01*
X175218190Y-103908952D01*
X175218190Y-103528000D01*
X175694380Y-104528000D02*
X175027714Y-104528000D01*
X174694380Y-104528000D02*
X174742000Y-104480380D01*
X174789619Y-104528000D01*
X174742000Y-104575619D01*
X174694380Y-104528000D01*
X174789619Y-104528000D01*
X175694380Y-105147047D02*
X175646761Y-105051809D01*
X175551523Y-105004190D01*
X174694380Y-105004190D01*
X175694380Y-105670857D02*
X175646761Y-105575619D01*
X175599142Y-105528000D01*
X175503904Y-105480380D01*
X175218190Y-105480380D01*
X175122952Y-105528000D01*
X175075333Y-105575619D01*
X175027714Y-105670857D01*
X175027714Y-105813714D01*
X175075333Y-105908952D01*
X175122952Y-105956571D01*
X175218190Y-106004190D01*
X175503904Y-106004190D01*
X175599142Y-105956571D01*
X175646761Y-105908952D01*
X175694380Y-105813714D01*
X175694380Y-105670857D01*
X175027714Y-106289904D02*
X175027714Y-106670857D01*
X174694380Y-106432761D02*
X175551523Y-106432761D01*
X175646761Y-106480380D01*
X175694380Y-106575619D01*
X175694380Y-106670857D01*
X175599142Y-118181333D02*
X175646761Y-118133714D01*
X175694380Y-117990857D01*
X175694380Y-117895619D01*
X175646761Y-117752761D01*
X175551523Y-117657523D01*
X175456285Y-117609904D01*
X175265809Y-117562285D01*
X175122952Y-117562285D01*
X174932476Y-117609904D01*
X174837238Y-117657523D01*
X174742000Y-117752761D01*
X174694380Y-117895619D01*
X174694380Y-117990857D01*
X174742000Y-118133714D01*
X174789619Y-118181333D01*
X175027714Y-119038476D02*
X175694380Y-119038476D01*
X175027714Y-118609904D02*
X175551523Y-118609904D01*
X175646761Y-118657523D01*
X175694380Y-118752761D01*
X175694380Y-118895619D01*
X175646761Y-118990857D01*
X175599142Y-119038476D01*
X175694380Y-119514666D02*
X175027714Y-119514666D01*
X175218190Y-119514666D02*
X175122952Y-119562285D01*
X175075333Y-119609904D01*
X175027714Y-119705142D01*
X175027714Y-119800380D01*
X175694380Y-120133714D02*
X175027714Y-120133714D01*
X175218190Y-120133714D02*
X175122952Y-120181333D01*
X175075333Y-120228952D01*
X175027714Y-120324190D01*
X175027714Y-120419428D01*
X175646761Y-121133714D02*
X175694380Y-121038476D01*
X175694380Y-120848000D01*
X175646761Y-120752761D01*
X175551523Y-120705142D01*
X175170571Y-120705142D01*
X175075333Y-120752761D01*
X175027714Y-120848000D01*
X175027714Y-121038476D01*
X175075333Y-121133714D01*
X175170571Y-121181333D01*
X175265809Y-121181333D01*
X175361047Y-120705142D01*
X175027714Y-121609904D02*
X175694380Y-121609904D01*
X175122952Y-121609904D02*
X175075333Y-121657523D01*
X175027714Y-121752761D01*
X175027714Y-121895619D01*
X175075333Y-121990857D01*
X175170571Y-122038476D01*
X175694380Y-122038476D01*
X175027714Y-122371809D02*
X175027714Y-122752761D01*
X174694380Y-122514666D02*
X175551523Y-122514666D01*
X175646761Y-122562285D01*
X175694380Y-122657523D01*
X175694380Y-122752761D01*
X174694380Y-123705142D02*
X174694380Y-124276571D01*
X175694380Y-123990857D02*
X174694380Y-123990857D01*
X175694380Y-124609904D02*
X175027714Y-124609904D01*
X175218190Y-124609904D02*
X175122952Y-124657523D01*
X175075333Y-124705142D01*
X175027714Y-124800380D01*
X175027714Y-124895619D01*
X175694380Y-125657523D02*
X175170571Y-125657523D01*
X175075333Y-125609904D01*
X175027714Y-125514666D01*
X175027714Y-125324190D01*
X175075333Y-125228952D01*
X175646761Y-125657523D02*
X175694380Y-125562285D01*
X175694380Y-125324190D01*
X175646761Y-125228952D01*
X175551523Y-125181333D01*
X175456285Y-125181333D01*
X175361047Y-125228952D01*
X175313428Y-125324190D01*
X175313428Y-125562285D01*
X175265809Y-125657523D01*
X175027714Y-126133714D02*
X175694380Y-126133714D01*
X175122952Y-126133714D02*
X175075333Y-126181333D01*
X175027714Y-126276571D01*
X175027714Y-126419428D01*
X175075333Y-126514666D01*
X175170571Y-126562285D01*
X175694380Y-126562285D01*
X175646761Y-126990857D02*
X175694380Y-127086095D01*
X175694380Y-127276571D01*
X175646761Y-127371809D01*
X175551523Y-127419428D01*
X175503904Y-127419428D01*
X175408666Y-127371809D01*
X175361047Y-127276571D01*
X175361047Y-127133714D01*
X175313428Y-127038476D01*
X175218190Y-126990857D01*
X175170571Y-126990857D01*
X175075333Y-127038476D01*
X175027714Y-127133714D01*
X175027714Y-127276571D01*
X175075333Y-127371809D01*
X175027714Y-127705142D02*
X175027714Y-128086095D01*
X175694380Y-127848000D02*
X174837238Y-127848000D01*
X174742000Y-127895619D01*
X174694380Y-127990857D01*
X174694380Y-128086095D01*
X175694380Y-128562285D02*
X175646761Y-128467047D01*
X175599142Y-128419428D01*
X175503904Y-128371809D01*
X175218190Y-128371809D01*
X175122952Y-128419428D01*
X175075333Y-128467047D01*
X175027714Y-128562285D01*
X175027714Y-128705142D01*
X175075333Y-128800380D01*
X175122952Y-128848000D01*
X175218190Y-128895619D01*
X175503904Y-128895619D01*
X175599142Y-128848000D01*
X175646761Y-128800380D01*
X175694380Y-128705142D01*
X175694380Y-128562285D01*
X175694380Y-129324190D02*
X175027714Y-129324190D01*
X175218190Y-129324190D02*
X175122952Y-129371809D01*
X175075333Y-129419428D01*
X175027714Y-129514666D01*
X175027714Y-129609904D01*
X175694380Y-129943238D02*
X175027714Y-129943238D01*
X175122952Y-129943238D02*
X175075333Y-129990857D01*
X175027714Y-130086095D01*
X175027714Y-130228952D01*
X175075333Y-130324190D01*
X175170571Y-130371809D01*
X175694380Y-130371809D01*
X175170571Y-130371809D02*
X175075333Y-130419428D01*
X175027714Y-130514666D01*
X175027714Y-130657523D01*
X175075333Y-130752761D01*
X175170571Y-130800380D01*
X175694380Y-130800380D01*
X175646761Y-131657523D02*
X175694380Y-131562285D01*
X175694380Y-131371809D01*
X175646761Y-131276571D01*
X175551523Y-131228952D01*
X175170571Y-131228952D01*
X175075333Y-131276571D01*
X175027714Y-131371809D01*
X175027714Y-131562285D01*
X175075333Y-131657523D01*
X175170571Y-131705142D01*
X175265809Y-131705142D01*
X175361047Y-131228952D01*
X175694380Y-132133714D02*
X175027714Y-132133714D01*
X175218190Y-132133714D02*
X175122952Y-132181333D01*
X175075333Y-132228952D01*
X175027714Y-132324190D01*
X175027714Y-132419428D01*
X175646761Y-132705142D02*
X175694380Y-132800380D01*
X175694380Y-132990857D01*
X175646761Y-133086095D01*
X175551523Y-133133714D01*
X175503904Y-133133714D01*
X175408666Y-133086095D01*
X175361047Y-132990857D01*
X175361047Y-132848000D01*
X175313428Y-132752761D01*
X175218190Y-132705142D01*
X175170571Y-132705142D01*
X175075333Y-132752761D01*
X175027714Y-132848000D01*
X175027714Y-132990857D01*
X175075333Y-133086095D01*
X189454380Y-143854666D02*
X190168666Y-143854666D01*
X190311523Y-143807047D01*
X190406761Y-143711809D01*
X190454380Y-143568952D01*
X190454380Y-143473714D01*
X189454380Y-144235619D02*
X189454380Y-144854666D01*
X189835333Y-144521333D01*
X189835333Y-144664190D01*
X189882952Y-144759428D01*
X189930571Y-144807047D01*
X190025809Y-144854666D01*
X190263904Y-144854666D01*
X190359142Y-144807047D01*
X190406761Y-144759428D01*
X190454380Y-144664190D01*
X190454380Y-144378476D01*
X190406761Y-144283238D01*
X190359142Y-144235619D01*
X125813333Y-133122380D02*
X125813333Y-133836666D01*
X125860952Y-133979523D01*
X125956190Y-134074761D01*
X126099047Y-134122380D01*
X126194285Y-134122380D01*
X124908571Y-133455714D02*
X124908571Y-134122380D01*
X125146666Y-133074761D02*
X125384761Y-133789047D01*
X124765714Y-133789047D01*
X136563333Y-133122380D02*
X136563333Y-133836666D01*
X136610952Y-133979523D01*
X136706190Y-134074761D01*
X136849047Y-134122380D01*
X136944285Y-134122380D01*
X135610952Y-133122380D02*
X136087142Y-133122380D01*
X136134761Y-133598571D01*
X136087142Y-133550952D01*
X135991904Y-133503333D01*
X135753809Y-133503333D01*
X135658571Y-133550952D01*
X135610952Y-133598571D01*
X135563333Y-133693809D01*
X135563333Y-133931904D01*
X135610952Y-134027142D01*
X135658571Y-134074761D01*
X135753809Y-134122380D01*
X135991904Y-134122380D01*
X136087142Y-134074761D01*
X136134761Y-134027142D01*
X133802380Y-99654761D02*
X133326190Y-99321428D01*
X133802380Y-99083333D02*
X132802380Y-99083333D01*
X132802380Y-99464285D01*
X132850000Y-99559523D01*
X132897619Y-99607142D01*
X132992857Y-99654761D01*
X133135714Y-99654761D01*
X133230952Y-99607142D01*
X133278571Y-99559523D01*
X133326190Y-99464285D01*
X133326190Y-99083333D01*
X132802380Y-99940476D02*
X133802380Y-100273809D01*
X132802380Y-100607142D01*
X132897619Y-100892857D02*
X132850000Y-100940476D01*
X132802380Y-101035714D01*
X132802380Y-101273809D01*
X132850000Y-101369047D01*
X132897619Y-101416666D01*
X132992857Y-101464285D01*
X133088095Y-101464285D01*
X133230952Y-101416666D01*
X133802380Y-100845238D01*
X133802380Y-101464285D01*
X120102380Y-108654761D02*
X119626190Y-108321428D01*
X120102380Y-108083333D02*
X119102380Y-108083333D01*
X119102380Y-108464285D01*
X119150000Y-108559523D01*
X119197619Y-108607142D01*
X119292857Y-108654761D01*
X119435714Y-108654761D01*
X119530952Y-108607142D01*
X119578571Y-108559523D01*
X119626190Y-108464285D01*
X119626190Y-108083333D01*
X119102380Y-108940476D02*
X120102380Y-109273809D01*
X119102380Y-109607142D01*
X119102380Y-109845238D02*
X119102380Y-110464285D01*
X119483333Y-110130952D01*
X119483333Y-110273809D01*
X119530952Y-110369047D01*
X119578571Y-110416666D01*
X119673809Y-110464285D01*
X119911904Y-110464285D01*
X120007142Y-110416666D01*
X120054761Y-110369047D01*
X120102380Y-110273809D01*
X120102380Y-109988095D01*
X120054761Y-109892857D01*
X120007142Y-109845238D01*
X151353904Y-70020380D02*
X151353904Y-70829904D01*
X151306285Y-70925142D01*
X151258666Y-70972761D01*
X151163428Y-71020380D01*
X150972952Y-71020380D01*
X150877714Y-70972761D01*
X150830095Y-70925142D01*
X150782476Y-70829904D01*
X150782476Y-70020380D01*
X149877714Y-70353714D02*
X149877714Y-71020380D01*
X150115809Y-69972761D02*
X150353904Y-70687047D01*
X149734857Y-70687047D01*
M02*
